  0
SECTION
  2
HEADER
  9
$ACADVER
  1
AC1015
  9
$ACADMAINTVER
 70
     6
  9
$DWGCODEPAGE
  3
UNDEFINED
  9
$INSBASE
 10
0.0
 20
0.0
 30
0.0
  9
$EXTMIN
 10
-10.0
 20
-45.0
 30
0.0
  9
$EXTMAX
 10
135.6742218615
 20
25.0
 30
0.0
  9
$LIMMIN
 10
0.0
 20
0.0
  9
$LIMMAX
 10
420.0
 20
297.0
  9
$ORTHOMODE
 70
     0
  9
$REGENMODE
 70
     1
  9
$FILLMODE
 70
     1
  9
$QTEXTMODE
 70
     0
  9
$MIRRTEXT
 70
     1
  9
$LTSCALE
 40
1.0
  9
$ATTMODE
 70
     1
  9
$TEXTSIZE
 40
3.5
  9
$TRACEWID
 40
1.0
  9
$TEXTSTYLE
  7
Standard
  9
$CLAYER
  8
0
  9
$CELTYPE
  6
ByLayer
  9
$CECOLOR
 62
   256
  9
$CELTSCALE
 40
1.0
  9
$DISPSILH
 70
     0
  9
$DIMSCALE
 40
1.0
  9
$DIMASZ
 40
3.302
  9
$DIMEXO
 40
0.0
  9
$DIMDLI
 40
3.75
  9
$DIMRND
 40
0.0
  9
$DIMDLE
 40
0.0
  9
$DIMEXE
 40
1.0
  9
$DIMTP
 40
0.0
  9
$DIMTM
 40
0.0
  9
$DIMTXT
 40
3.5
  9
$DIMCEN
 40
2.5
  9
$DIMTSZ
 40
0.0
  9
$DIMTOL
 70
     0
  9
$DIMLIM
 70
     0
  9
$DIMTIH
 70
     1
  9
$DIMTOH
 70
     1
  9
$DIMSE1
 70
     0
  9
$DIMSE2
 70
     0
  9
$DIMTAD
 70
     1
  9
$DIMZIN
 70
     1
  9
$DIMBLK
  1

  9
$DIMASO
 70
     1
  9
$DIMSHO
 70
     1
  9
$DIMPOST
  1

  9
$DIMAPOST
  1

  9
$DIMALT
 70
     0
  9
$DIMALTD
 70
     3
  9
$DIMALTF
 40
0.0393700787
  9
$DIMLFAC
 40
1.0
  9
$DIMTOFL
 70
     1
  9
$DIMTVP
 40
0.0
  9
$DIMTIX
 70
     0
  9
$DIMSOXD
 70
     0
  9
$DIMSAH
 70
     0
  9
$DIMBLK1
  1

  9
$DIMBLK2
  1

  9
$DIMSTYLE
  2
ISO-25
  9
$DIMCLRD
 70
     0
  9
$DIMCLRE
 70
     0
  9
$DIMCLRT
 70
     0
  9
$DIMTFAC
 40
1.0
  9
$DIMGAP
 40
1.524
  9
$DIMJUST
 70
     0
  9
$DIMSD1
 70
     0
  9
$DIMSD2
 70
     0
  9
$DIMTOLJ
 70
     0
  9
$DIMTZIN
 70
     1
  9
$DIMALTZ
 70
     0
  9
$DIMALTTZ
 70
     0
  9
$DIMUPT
 70
     0
  9
$DIMDEC
 70
     2
  9
$DIMTDEC
 70
     2
  9
$DIMALTU
 70
     2
  9
$DIMALTTD
 70
     3
  9
$DIMTXSTY
  7
Standard
  9
$DIMAUNIT
 70
     0
  9
$DIMADEC
 70
     2
  9
$DIMALTRND
 40
0.0
  9
$DIMAZIN
 70
     0
  9
$DIMDSEP
 70
    44
  9
$DIMATFIT
 70
     3
  9
$DIMFRAC
 70
     0
  9
$DIMLDRBLK
  1

  9
$DIMLUNIT
 70
     2
  9
$DIMLWD
 70
    -2
  9
$DIMLWE
 70
    -2
  9
$DIMTMOVE
 70
     0
  9
$LUNITS
 70
     2
  9
$LUPREC
 70
     6
  9
$SKETCHINC
 40
1.0
  9
$FILLETRAD
 40
0.0
  9
$AUNITS
 70
     0
  9
$AUPREC
 70
     2
  9
$MENU
  1
.
  9
$ELEVATION
 40
0.0
  9
$PELEVATION
 40
0.0
  9
$THICKNESS
 40
0.0
  9
$LIMCHECK
 70
     0
  9
$CHAMFERA
 40
0.0
  9
$CHAMFERB
 40
0.0
  9
$CHAMFERC
 40
0.0
  9
$CHAMFERD
 40
0.0
  9
$SKPOLY
 70
     0
  9
$TDCREATE
 40
2460822.912777153
  9
$TDUCREATE
 40
2460822.82944382
  9
$TDUPDATE
 40
2460822.913147871
  9
$TDUUPDATE
 40
2460822.829814537
  9
$TDINDWG
 40
0.0000000116
  9
$TDUSRTIMER
 40
0.0000000116
  9
$USRTIMER
 70
     1
  9
$ANGBASE
 50
0.0
  9
$ANGDIR
 70
     0
  9
$PDMODE
 70
     0
  9
$PDSIZE
 40
-1.0
  9
$PLINEWID
 40
0.0
  9
$SPLFRAME
 70
     0
  9
$SPLINETYPE
 70
     6
  9
$SPLINESEGS
 70
     8
  9
$HANDSEED
  5
216
  9
$SURFTAB1
 70
     6
  9
$SURFTAB2
 70
     6
  9
$SURFTYPE
 70
     6
  9
$SURFU
 70
     6
  9
$SURFV
 70
     6
  9
$UCSBASE
  2

  9
$UCSNAME
  2

  9
$UCSORG
 10
0.0
 20
0.0
 30
0.0
  9
$UCSXDIR
 10
1.0
 20
0.0
 30
0.0
  9
$UCSYDIR
 10
0.0
 20
1.0
 30
0.0
  9
$UCSORTHOREF
  2

  9
$UCSORTHOVIEW
 70
     0
  9
$UCSORGTOP
 10
0.0
 20
0.0
 30
0.0
  9
$UCSORGBOTTOM
 10
0.0
 20
0.0
 30
0.0
  9
$UCSORGLEFT
 10
0.0
 20
0.0
 30
0.0
  9
$UCSORGRIGHT
 10
0.0
 20
0.0
 30
0.0
  9
$UCSORGFRONT
 10
0.0
 20
0.0
 30
0.0
  9
$UCSORGBACK
 10
0.0
 20
0.0
 30
0.0
  9
$PUCSBASE
  2

  9
$PUCSNAME
  2

  9
$PUCSORG
 10
0.0
 20
0.0
 30
0.0
  9
$PUCSXDIR
 10
1.0
 20
0.0
 30
0.0
  9
$PUCSYDIR
 10
0.0
 20
1.0
 30
0.0
  9
$PUCSORTHOREF
  2

  9
$PUCSORTHOVIEW
 70
     0
  9
$PUCSORGTOP
 10
0.0
 20
0.0
 30
0.0
  9
$PUCSORGBOTTOM
 10
0.0
 20
0.0
 30
0.0
  9
$PUCSORGLEFT
 10
0.0
 20
0.0
 30
0.0
  9
$PUCSORGRIGHT
 10
0.0
 20
0.0
 30
0.0
  9
$PUCSORGFRONT
 10
0.0
 20
0.0
 30
0.0
  9
$PUCSORGBACK
 10
0.0
 20
0.0
 30
0.0
  9
$USERI1
 70
     0
  9
$USERI2
 70
     0
  9
$USERI3
 70
     0
  9
$USERI4
 70
     0
  9
$USERI5
 70
     0
  9
$USERR1
 40
0.0
  9
$USERR2
 40
0.0
  9
$USERR3
 40
0.0
  9
$USERR4
 40
0.0
  9
$USERR5
 40
0.0
  9
$WORLDVIEW
 70
     1
  9
$SHADEDGE
 70
     3
  9
$SHADEDIF
 70
    70
  9
$TILEMODE
 70
     1
  9
$MAXACTVP
 70
    64
  9
$PINSBASE
 10
0.0
 20
0.0
 30
0.0
  9
$PLIMCHECK
 70
     0
  9
$PEXTMIN
 10
1.0000000000E+20
 20
1.0000000000E+20
 30
1.0000000000E+20
  9
$PEXTMAX
 10
-1.0000000000E+20
 20
-1.0000000000E+20
 30
-1.0000000000E+20
  9
$PLIMMIN
 10
0.0
 20
0.0
  9
$PLIMMAX
 10
420.0
 20
297.0
  9
$UNITMODE
 70
     0
  9
$VISRETAIN
 70
     1
  9
$PLINEGEN
 70
     0
  9
$PSLTSCALE
 70
     1
  9
$TREEDEPTH
 70
  3020
  9
$CMLSTYLE
  2
Standard
  9
$CMLJUST
 70
     0
  9
$CMLSCALE
 40
20.0
  9
$PROXYGRAPHICS
 70
     1
  9
$MEASUREMENT
 70
     1
  9
$CELWEIGHT
370
    -1
  9
$ENDCAPS
280
     0
  9
$JOINSTYLE
280
     0
  9
$LWDISPLAY
290
     1
  9
$INSUNITS
 70
     4
  9
$HYPERLINKBASE
  1

  9
$STYLESHEET
  1

  9
$XEDIT
290
     1
  9
$CEPSNTYPE
380
     0
  9
$PSTYLEMODE
290
     1
  9
$FINGERPRINTGUID
  2
{bedf21f7-66b4-44f1-86a0-2933abd8a953}
  9
$VERSIONGUID
  2
{FAEB1C32-E019-11D5-929B-00C0DF256EC4}
  9
$EXTNAMES
290
     1
  9
$PSVPSCALE
 40
0.0
  9
$OLESTARTUP
290
     0
  0
ENDSEC
  0
SECTION
  2
CLASSES
  0
CLASS
  1
ACDBDICTIONARYWDFLT
  2
AcDbDictionaryWithDefault
  3
ObjectDBX Classes
 90
        0
280
     0
281
     0
  0
CLASS
  1
VISUALSTYLE
  2
AcDbVisualStyle
  3
ObjectDBX Classes
 90
     4095
280
     0
281
     0
  0
CLASS
  1
MATERIAL
  2
AcDbMaterial
  3
ObjectDBX Classes
 90
     1153
280
     0
281
     0
  0
CLASS
  1
SCALE
  2
AcDbScale
  3
ObjectDBX Classes
 90
     1153
280
     0
281
     0
  0
CLASS
  1
TABLESTYLE
  2
AcDbTableStyle
  3
ObjectDBX Classes
 90
     4095
280
     0
281
     0
  0
CLASS
  1
MLEADERSTYLE
  2
AcDbMLeaderStyle
  3
ACDB_MLEADERSTYLE_CLASS
 90
     4095
280
     0
281
     0
  0
CLASS
  1
SUN
  2
AcDbSun
  3
SCENEOE
 90
     1153
280
     0
281
     0
  0
CLASS
  1
ACDBPLACEHOLDER
  2
AcDbPlaceHolder
  3
ObjectDBX Classes
 90
        0
280
     0
281
     0
  0
CLASS
  1
LAYOUT
  2
AcDbLayout
  3
ObjectDBX Classes
 90
        0
280
     0
281
     0
  0
ENDSEC
  0
SECTION
  2
TABLES
  0
TABLE
  2
VPORT
  5
8
330
0
100
AcDbSymbolTable
 70
     1
  0
VPORT
  5
29
330
8
100
AcDbSymbolTableRecord
100
AcDbViewportTableRecord
  2
*Active
 70
     0
 10
0.0
 20
0.0
 11
1.0
 21
1.0
 12
62.8371109308
 22
-10.0
 13
0.0
 23
0.0
 14
10.0
 24
10.0
 15
10.0
 25
10.0
 16
0.0
 26
0.0
 36
1.0
 17
0.0
 27
0.0
 37
0.0
 40
71.4
 41
2.0810603123
 42
50.0
 43
0.0
 44
0.0
 50
0.0
 51
0.0
 71
     0
 72
   100
 73
     1
 74
     3
 75
     0
 76
     0
 77
     0
 78
     0
281
     0
 65
     1
110
0.0
120
0.0
130
0.0
111
1.0
121
0.0
131
0.0
112
0.0
122
1.0
132
0.0
 79
     0
146
0.0
  0
ENDTAB
  0
TABLE
  2
LTYPE
  5
5
330
0
100
AcDbSymbolTable
 70
     6
  0
LTYPE
  5
14
330
5
100
AcDbSymbolTableRecord
100
AcDbLinetypeTableRecord
  2
ByBlock
 70
     0
  3

 72
    65
 73
     0
 40
0.0
  0
LTYPE
  5
15
330
5
100
AcDbSymbolTableRecord
100
AcDbLinetypeTableRecord
  2
ByLayer
 70
     0
  3

 72
    65
 73
     0
 40
0.0
  0
LTYPE
  5
16
330
5
100
AcDbSymbolTableRecord
100
AcDbLinetypeTableRecord
  2
Continuous
 70
     0
  3
Solid line
 72
    65
 73
     0
 40
0.0
  0
LTYPE
  5
5E
330
5
100
AcDbSymbolTableRecord
100
AcDbLinetypeTableRecord
  2
HIDDEN
 70
     0
  3
Hidden __ __ __ __ __ __ __ __ __ __ __ __ __ __
 72
    65
 73
     2
 40
1.905
 49
1.27
 74
     0
 49
-0.635
 74
     0
  0
LTYPE
  5
5F
330
5
100
AcDbSymbolTableRecord
100
AcDbLinetypeTableRecord
  2
PHANTOM
 70
     0
  3
Phantom ______  __  __  ______  __  __  ______
 72
    65
 73
     6
 40
12.7
 49
6.35
 74
     0
 49
-1.27
 74
     0
 49
1.27
 74
     0
 49
-1.27
 74
     0
 49
1.27
 74
     0
 49
-1.27
 74
     0
  0
LTYPE
  5
60
330
5
100
AcDbSymbolTableRecord
100
AcDbLinetypeTableRecord
  2
CENTER
 70
     0
  3
Center ____ _ ____ _ ____ _ ____ _ ____ _ ____
 72
    65
 73
     4
 40
10.16
 49
6.35
 74
     0
 49
-1.27
 74
     0
 49
1.27
 74
     0
 49
-1.27
 74
     0
  0
LTYPE
  5
61
330
5
100
AcDbSymbolTableRecord
100
AcDbLinetypeTableRecord
  2
CENTERX2
 70
     0
  3
Center (2x) ________  __  ________  __  _____
 72
    65
 73
     4
 40
20.32
 49
12.7
 74
     0
 49
-2.54
 74
     0
 49
2.54
 74
     0
 49
-2.54
 74
     0
  0
LTYPE
  5
62
330
5
100
AcDbSymbolTableRecord
100
AcDbLinetypeTableRecord
  2
DOT2
 70
     0
  3
Dot (.5x) ........................................
 72
    65
 73
     2
 40
0.635
 49
0.0
 74
     0
 49
-0.635
 74
     0
  0
ENDTAB
  0
TABLE
  2
LAYER
  5
2
330
0
100
AcDbSymbolTable
 70
     1
  0
LAYER
  5
10
330
2
100
AcDbSymbolTableRecord
100
AcDbLayerTableRecord
  2
0
 70
     0
 62
     7
  6
Continuous
370
    -3
390
F
  0
ENDTAB
  0
TABLE
  2
STYLE
  5
3
330
0
100
AcDbSymbolTable
 70
     1
  0
STYLE
  5
11
330
3
100
AcDbSymbolTableRecord
100
AcDbTextStyleTableRecord
  2
Standard
 70
     0
 40
0.0
 41
1.0
 50
0.0
 71
     0
 42
3.5
  3
txt
  4

  0
ENDTAB
  0
TABLE
  2
VIEW
  5
6
330
0
100
AcDbSymbolTable
 70
     0
  0
ENDTAB
  0
TABLE
  2
UCS
  5
7
330
0
100
AcDbSymbolTable
 70
     0
  0
ENDTAB
  0
TABLE
  2
APPID
  5
9
330
0
100
AcDbSymbolTable
 70
     1
  0
APPID
  5
12
330
9
100
AcDbSymbolTableRecord
100
AcDbRegAppTableRecord
  2
ACAD
 70
     0
  0
ENDTAB
  0
TABLE
  2
DIMSTYLE
  5
A
330
0
100
AcDbSymbolTable
 70
     1
100
AcDbDimStyleTable
  0
DIMSTYLE
105
27
330
A
100
AcDbSymbolTableRecord
100
AcDbDimStyleTableRecord
  2
ISO-25
 70
     0
 41
2.5
 42
0.625
 43
3.75
 44
1.25
 73
     0
 74
     0
 77
     1
 78
     8
140
2.5
141
2.5
143
0.0393700787
147
0.625
171
     3
172
     1
178
     0
271
     2
272
     2
274
     3
278
    44
283
     0
284
     8
340
11
  0
ENDTAB
  0
TABLE
  2
BLOCK_RECORD
  5
1
330
0
100
AcDbSymbolTable
 70
     1
  0
BLOCK_RECORD
  5
1F
330
1
100
AcDbSymbolTableRecord
100
AcDbBlockTableRecord
  2
*Model_Space
340
22
  0
BLOCK_RECORD
  5
1B
330
1
100
AcDbSymbolTableRecord
100
AcDbBlockTableRecord
  2
*Paper_Space
340
1E
  0
BLOCK_RECORD
  5
23
330
1
100
AcDbSymbolTableRecord
100
AcDbBlockTableRecord
  2
*Paper_Space0
340
26
  0
ENDTAB
  0
ENDSEC
  0
SECTION
  2
BLOCKS
  0
BLOCK
  5
20
330
1F
100
AcDbEntity
  8
0
100
AcDbBlockBegin
  2
*Model_Space
 70
     0
 10
0.0
 20
0.0
 30
0.0
  3
*Model_Space
  1

  0
ENDBLK
  5
21
330
1F
100
AcDbEntity
  8
0
100
AcDbBlockEnd
  0
BLOCK
  5
1C
330
1B
100
AcDbEntity
 67
     1
  8
0
100
AcDbBlockBegin
  2
*Paper_Space
 70
     0
 10
0.0
 20
0.0
 30
0.0
  3
*Paper_Space
  1

  0
ENDBLK
  5
1D
330
1B
100
AcDbEntity
 67
     1
  8
0
100
AcDbBlockEnd
  0
BLOCK
  5
24
330
23
100
AcDbEntity
  8
0
100
AcDbBlockBegin
  2
*Paper_Space0
 70
     0
 10
0.0
 20
0.0
 30
0.0
  3
*Paper_Space0
  1

  0
ENDBLK
  5
25
330
23
100
AcDbEntity
  8
0
100
AcDbBlockEnd
  0
ENDSEC
  0
SECTION
  2
ENTITIES
  0
ARC
  5
63
330
1F
100
AcDbEntity
  8
0
  6
Continuous
 62
     7
100
AcDbCircle
 10
15.0
 20
10.0
 30
0.0
 40
5.000000000000004
100
AcDbArc
 50
0.0
 51
90.0
  0
ARC
  5
64
330
1F
100
AcDbEntity
  8
0
  6
Continuous
 62
     7
100
AcDbCircle
 10
10.1
 20
-5.1
 30
0.0
 40
9.899999999999999
100
AcDbArc
 50
270.0
 51
0.0
  0
ARC
  5
65
330
1F
100
AcDbEntity
  8
0
  6
Continuous
 62
     7
100
AcDbCircle
 10
9.9
 20
-5.1
 30
0.0
 40
9.900000000000006
100
AcDbArc
 50
180.0
 51
270.0
  0
ARC
  5
66
330
1F
100
AcDbEntity
  8
0
  6
Continuous
 62
     7
100
AcDbCircle
 10
5.0
 20
10.0
 30
0.0
 40
5.000000000000004
100
AcDbArc
 50
90.0
 51
180.0
  0
ARC
  5
67
330
1F
100
AcDbEntity
  8
0
  6
Continuous
 62
     7
100
AcDbCircle
 10
20.0
 20
15.0
 30
0.0
 40
10.00000000000001
100
AcDbArc
 50
60.0
 51
90.0
  0
ARC
  5
68
330
1F
100
AcDbEntity
  8
0
  6
Continuous
 62
     7
100
AcDbCircle
 10
0.0
 20
15.0
 30
0.0
 40
9.999999999999998
100
AcDbArc
 50
90.0
 51
180.0
  0
ARC
  5
69
330
1F
100
AcDbEntity
  8
0
  6
Continuous
 62
     7
100
AcDbCircle
 10
60.0
 20
-10.0
 30
0.0
 40
4.999999999999997
100
AcDbArc
 50
0.0
 51
90.0
  0
ARC
  5
6A
330
1F
100
AcDbEntity
  8
0
  6
Continuous
 62
     7
100
AcDbCircle
 10
52.0
 20
-7.0
 30
0.0
 40
2.000000000000007
100
AcDbArc
 50
90.0
 51
180.0
  0
ARC
  5
6B
330
1F
100
AcDbEntity
  8
0
  6
Continuous
 62
     7
100
AcDbCircle
 10
45.0
 20
-10.0
 30
0.0
 40
5.0
100
AcDbArc
 50
270.0
 51
0.0
  0
ARC
  5
6C
330
1F
100
AcDbEntity
  8
0
  6
Continuous
 62
     7
100
AcDbCircle
 10
35.0
 20
-10.0
 30
0.0
 40
5.0
100
AcDbArc
 50
180.0
 51
270.0
  0
ARC
  5
6D
330
1F
100
AcDbEntity
  8
0
  6
Continuous
 62
     7
100
AcDbCircle
 10
35.0
 20
10.0
 30
0.0
 40
5.0
100
AcDbArc
 50
90.0
 51
180.0
  0
ARC
  5
6E
330
1F
100
AcDbEntity
  8
0
  6
Continuous
 62
     7
100
AcDbCircle
 10
45.0
 20
10.0
 30
0.0
 40
5.0
100
AcDbArc
 50
0.0
 51
90.0
  0
ARC
  5
6F
330
1F
100
AcDbEntity
  8
0
  6
Continuous
 62
     7
100
AcDbCircle
 10
52.0
 20
7.0
 30
0.0
 40
2.0
100
AcDbArc
 50
180.0
 51
270.0
  0
ARC
  5
70
330
1F
100
AcDbEntity
  8
0
  6
Continuous
 62
     7
100
AcDbCircle
 10
60.0
 20
10.0
 30
0.0
 40
5.000000000000001
100
AcDbArc
 50
270.0
 51
0.0
  0
ARC
  5
71
330
1F
100
AcDbEntity
  8
0
  6
Continuous
 62
     7
100
AcDbCircle
 10
110.6742218615
 20
-10.0
 30
0.0
 40
5.0
100
AcDbArc
 50
180.0
 51
270.0
  0
ARC
  5
72
330
1F
100
AcDbEntity
  8
0
  6
Continuous
 62
     7
100
AcDbCircle
 10
115.5742218615
 20
5.1
 30
0.0
 40
9.899999999999979
100
AcDbArc
 50
90.0
 51
180.0
  0
ARC
  5
73
330
1F
100
AcDbEntity
  8
0
  6
Continuous
 62
     7
100
AcDbCircle
 10
115.7742218615
 20
5.1
 30
0.0
 40
9.900000000000006
100
AcDbArc
 50
0.0
 51
90.0
  0
ARC
  5
74
330
1F
100
AcDbEntity
  8
0
  6
Continuous
 62
     7
100
AcDbCircle
 10
120.6742218615
 20
-10.0
 30
0.0
 40
5.0
100
AcDbArc
 50
270.0
 51
0.0
  0
ARC
  5
75
330
1F
100
AcDbEntity
  8
0
  6
Continuous
 62
     7
100
AcDbCircle
 10
95.1742218615
 20
12.9400513413
 30
0.0
 40
0.5
100
AcDbArc
 50
360.0
 51
145.0
  0
ARC
  5
76
330
1F
100
AcDbEntity
  8
0
  6
Continuous
 62
     7
100
AcDbCircle
 10
95.1742218615
 20
-12.9400513413
 30
0.0
 40
0.5
100
AcDbArc
 50
215.0
 51
0.0
  0
ARC
  5
77
330
1F
100
AcDbEntity
  8
0
  6
Continuous
 62
     7
100
AcDbCircle
 10
0.0
 20
-15.0
 30
0.0
 40
9.999999999999998
100
AcDbArc
 50
180.0
 51
270.0
  0
ARC
  5
78
330
1F
100
AcDbEntity
  8
0
  6
Continuous
 62
     7
100
AcDbCircle
 10
20.0
 20
-15.0
 30
0.0
 40
9.999999999999998
100
AcDbArc
 50
270.0
 51
300.0
  0
ARC
  5
7D
330
1F
100
AcDbEntity
  8
0
  6
Continuous
 62
     7
100
AcDbCircle
 10
64.9
 20
20.1
 30
0.0
 40
4.899999999999999
100
AcDbArc
 50
90.0
 51
180.0
  0
ARC
  5
7E
330
1F
100
AcDbEntity
  8
0
  6
Continuous
 62
     7
100
AcDbCircle
 10
55.0
 20
20.0
 30
0.0
 40
5.0
100
AcDbArc
 50
0.0
 51
90.0
  0
ARC
  5
7F
330
1F
100
AcDbEntity
  8
0
  6
Continuous
 62
     7
100
AcDbCircle
 10
30.0
 20
15.0
 30
0.0
 40
9.999999999999998
100
AcDbArc
 50
90.0
 51
120.0
  0
ARC
  5
80
330
1F
100
AcDbEntity
  8
0
  6
Continuous
 62
     7
100
AcDbCircle
 10
30.0
 20
-15.0
 30
0.0
 40
10.0
100
AcDbArc
 50
240.0
 51
270.0
  0
ARC
  5
81
330
1F
100
AcDbEntity
  8
0
  6
Continuous
 62
     7
100
AcDbCircle
 10
55.0
 20
-20.0
 30
0.0
 40
5.0
100
AcDbArc
 50
270.0
 51
0.0
  0
ARC
  5
82
330
1F
100
AcDbEntity
  8
0
  6
Continuous
 62
     7
100
AcDbCircle
 10
64.9
 20
-20.1
 30
0.0
 40
4.899999999999999
100
AcDbArc
 50
180.0
 51
270.0
  0
ARC
  5
83
330
1F
100
AcDbEntity
  8
0
  6
Continuous
 62
     7
100
AcDbCircle
 10
98.3
 20
-23.3
 30
0.0
 40
1.699999999999996
100
AcDbArc
 50
270.0
 51
0.0
  0
ARC
  5
84
330
1F
100
AcDbEntity
  8
0
  6
Continuous
 62
     7
100
AcDbCircle
 10
105.6742218615
 20
-15.0
 30
0.0
 40
10.00000000000001
100
AcDbArc
 50
235.4293381297
 51
270.0
  0
ARC
  5
85
330
1F
100
AcDbEntity
  8
0
  6
Continuous
 62
     7
100
AcDbCircle
 10
125.6742218615
 20
-15.0
 30
0.0
 40
10.00000000000001
100
AcDbArc
 50
270.0
 51
0.0
  0
ARC
  5
86
330
1F
100
AcDbEntity
  8
0
  6
Continuous
 62
     7
100
AcDbCircle
 10
125.6742218615
 20
15.0
 30
0.0
 40
10.00000000000001
100
AcDbArc
 50
0.0
 51
90.0
  0
ARC
  5
87
330
1F
100
AcDbEntity
  8
0
  6
Continuous
 62
     7
100
AcDbCircle
 10
105.6742218615
 20
15.0
 30
0.0
 40
10.0
100
AcDbArc
 50
90.0
 51
124.5706618703
  0
ARC
  5
88
330
1F
100
AcDbEntity
  8
0
  6
Continuous
 62
     7
100
AcDbCircle
 10
98.3
 20
23.3
 30
0.0
 40
1.699999999999999
100
AcDbArc
 50
0.0
 51
90.0
  0
ARC
  5
89
330
1F
100
AcDbEntity
  8
0
  6
Continuous
 62
     7
100
AcDbCircle
 10
95.1742218615
 20
12.9400513413
 30
0.0
 40
0.5
100
AcDbArc
 50
360.0
 51
145.0
  0
ARC
  5
8A
330
1F
100
AcDbEntity
  8
0
  6
Continuous
 62
     7
100
AcDbCircle
 10
95.1742218615
 20
-12.9400513413
 30
0.0
 40
0.5
100
AcDbArc
 50
215.0
 51
0.0
  0
ARC
  5
8B
330
1F
100
AcDbEntity
  8
0
  6
Continuous
 62
     7
100
AcDbCircle
 10
115.7742218615
 20
5.1
 30
0.0
 40
9.900000000000006
100
AcDbArc
 50
0.0
 51
90.0
  0
ARC
  5
8C
330
1F
100
AcDbEntity
  8
0
  6
Continuous
 62
     7
100
AcDbCircle
 10
115.5742218615
 20
5.1
 30
0.0
 40
9.899999999999979
100
AcDbArc
 50
90.0
 51
180.0
  0
ARC
  5
8D
330
1F
100
AcDbEntity
  8
0
  6
Continuous
 62
     7
100
AcDbCircle
 10
110.6742218615
 20
-10.0
 30
0.0
 40
4.999999999999993
100
AcDbArc
 50
180.0
 51
270.0
  0
ARC
  5
8E
330
1F
100
AcDbEntity
  8
0
  6
Continuous
 62
     7
100
AcDbCircle
 10
120.6742218615
 20
-10.0
 30
0.0
 40
5.0
100
AcDbArc
 50
270.0
 51
0.0
  0
ARC
  5
8F
330
1F
100
AcDbEntity
  8
0
  6
Continuous
 62
     7
100
AcDbCircle
 10
52.0
 20
7.0
 30
0.0
 40
2.0
100
AcDbArc
 50
180.0
 51
270.0
  0
ARC
  5
90
330
1F
100
AcDbEntity
  8
0
  6
Continuous
 62
     7
100
AcDbCircle
 10
60.0
 20
10.0
 30
0.0
 40
5.000000000000001
100
AcDbArc
 50
270.0
 51
0.0
  0
ARC
  5
91
330
1F
100
AcDbEntity
  8
0
  6
Continuous
 62
     7
100
AcDbCircle
 10
60.0
 20
-10.0
 30
0.0
 40
4.999999999999997
100
AcDbArc
 50
0.0
 51
90.0
  0
ARC
  5
92
330
1F
100
AcDbEntity
  8
0
  6
Continuous
 62
     7
100
AcDbCircle
 10
52.0
 20
-7.0
 30
0.0
 40
2.000000000000007
100
AcDbArc
 50
90.0
 51
180.0
  0
ARC
  5
93
330
1F
100
AcDbEntity
  8
0
  6
Continuous
 62
     7
100
AcDbCircle
 10
45.0
 20
-10.0
 30
0.0
 40
5.0
100
AcDbArc
 50
270.0
 51
0.0
  0
ARC
  5
94
330
1F
100
AcDbEntity
  8
0
  6
Continuous
 62
     7
100
AcDbCircle
 10
35.0
 20
-10.0
 30
0.0
 40
5.0
100
AcDbArc
 50
180.0
 51
270.0
  0
ARC
  5
95
330
1F
100
AcDbEntity
  8
0
  6
Continuous
 62
     7
100
AcDbCircle
 10
35.0
 20
10.0
 30
0.0
 40
5.0
100
AcDbArc
 50
90.0
 51
180.0
  0
ARC
  5
96
330
1F
100
AcDbEntity
  8
0
  6
Continuous
 62
     7
100
AcDbCircle
 10
45.0
 20
10.0
 30
0.0
 40
5.0
100
AcDbArc
 50
0.0
 51
90.0
  0
ARC
  5
97
330
1F
100
AcDbEntity
  8
0
  6
Continuous
 62
     7
100
AcDbCircle
 10
10.1
 20
-5.1
 30
0.0
 40
9.9
100
AcDbArc
 50
270.0
 51
0.0
  0
ARC
  5
98
330
1F
100
AcDbEntity
  8
0
  6
Continuous
 62
     7
100
AcDbCircle
 10
9.9
 20
-5.1
 30
0.0
 40
9.900000000000002
100
AcDbArc
 50
180.0
 51
270.0
  0
ARC
  5
99
330
1F
100
AcDbEntity
  8
0
  6
Continuous
 62
     7
100
AcDbCircle
 10
5.0
 20
10.0
 30
0.0
 40
5.000000000000003
100
AcDbArc
 50
90.0
 51
180.0
  0
ARC
  5
9A
330
1F
100
AcDbEntity
  8
0
  6
Continuous
 62
     7
100
AcDbCircle
 10
15.0
 20
10.0
 30
0.0
 40
5.000000000000002
100
AcDbArc
 50
0.0
 51
90.0
  0
ARC
  5
9B
330
1F
100
AcDbEntity
  8
0
  6
Continuous
 62
     7
100
AcDbCircle
 10
0.0
 20
-15.0
 30
0.0
 40
9.999999999999998
100
AcDbArc
 50
180.0
 51
270.0
  0
ARC
  5
9C
330
1F
100
AcDbEntity
  8
0
  6
Continuous
 62
     7
100
AcDbCircle
 10
0.0
 20
15.0
 30
0.0
 40
9.999999999999998
100
AcDbArc
 50
90.0
 51
180.0
  0
ARC
  5
9D
330
1F
100
AcDbEntity
  8
0
  6
Continuous
 62
     7
100
AcDbCircle
 10
20.0
 20
15.0
 30
0.0
 40
10.00000000000001
100
AcDbArc
 50
60.0
 51
90.0
  0
ARC
  5
9E
330
1F
100
AcDbEntity
  8
0
  6
Continuous
 62
     7
100
AcDbCircle
 10
30.0
 20
15.0
 30
0.0
 40
10.0
100
AcDbArc
 50
90.0
 51
120.0
  0
ARC
  5
9F
330
1F
100
AcDbEntity
  8
0
  6
Continuous
 62
     7
100
AcDbCircle
 10
55.0
 20
20.0
 30
0.0
 40
5.0
100
AcDbArc
 50
0.0
 51
90.0
  0
ARC
  5
A0
330
1F
100
AcDbEntity
  8
0
  6
Continuous
 62
     7
100
AcDbCircle
 10
64.9
 20
20.1
 30
0.0
 40
4.899999999999999
100
AcDbArc
 50
90.0
 51
180.0
  0
ARC
  5
A1
330
1F
100
AcDbEntity
  8
0
  6
Continuous
 62
     7
100
AcDbCircle
 10
98.3
 20
23.3
 30
0.0
 40
1.699999999999996
100
AcDbArc
 50
0.0
 51
90.0
  0
ARC
  5
A2
330
1F
100
AcDbEntity
  8
0
  6
Continuous
 62
     7
100
AcDbCircle
 10
105.6742218615
 20
15.0
 30
0.0
 40
10.0
100
AcDbArc
 50
90.0
 51
124.5706618703
  0
ARC
  5
A3
330
1F
100
AcDbEntity
  8
0
  6
Continuous
 62
     7
100
AcDbCircle
 10
125.6742218615
 20
15.0
 30
0.0
 40
10.00000000000001
100
AcDbArc
 50
0.0
 51
90.0
  0
ARC
  5
A4
330
1F
100
AcDbEntity
  8
0
  6
Continuous
 62
     7
100
AcDbCircle
 10
125.6742218615
 20
-15.0
 30
0.0
 40
10.00000000000001
100
AcDbArc
 50
270.0
 51
0.0
  0
ARC
  5
A5
330
1F
100
AcDbEntity
  8
0
  6
Continuous
 62
     7
100
AcDbCircle
 10
105.6742218615
 20
-15.0
 30
0.0
 40
10.00000000000001
100
AcDbArc
 50
235.4293381297
 51
270.0
  0
ARC
  5
A6
330
1F
100
AcDbEntity
  8
0
  6
Continuous
 62
     7
100
AcDbCircle
 10
98.3
 20
-23.3
 30
0.0
 40
1.699999999999996
100
AcDbArc
 50
270.0
 51
0.0
  0
ARC
  5
A7
330
1F
100
AcDbEntity
  8
0
  6
Continuous
 62
     7
100
AcDbCircle
 10
64.9
 20
-20.1
 30
0.0
 40
4.899999999999999
100
AcDbArc
 50
180.0
 51
270.0
  0
ARC
  5
A8
330
1F
100
AcDbEntity
  8
0
  6
Continuous
 62
     7
100
AcDbCircle
 10
55.0
 20
-20.0
 30
0.0
 40
5.0
100
AcDbArc
 50
270.0
 51
0.0
  0
ARC
  5
A9
330
1F
100
AcDbEntity
  8
0
  6
Continuous
 62
     7
100
AcDbCircle
 10
30.0
 20
-15.0
 30
0.0
 40
10.0
100
AcDbArc
 50
240.0
 51
270.0
  0
ARC
  5
AA
330
1F
100
AcDbEntity
  8
0
  6
Continuous
 62
     7
100
AcDbCircle
 10
20.0
 20
-15.0
 30
0.0
 40
9.999999999999998
100
AcDbArc
 50
270.0
 51
300.0
  0
LINE
  5
AB
330
1F
100
AcDbEntity
  8
0
  6
Continuous
 62
     7
100
AcDbLine
 10
15.0
 20
15.0
 30
0.0
 11
5.0
 21
15.0
 31
0.0
  0
LINE
  5
AC
330
1F
100
AcDbEntity
  8
0
  6
Continuous
 62
     7
100
AcDbLine
 10
20.0
 20
-5.1
 30
0.0
 11
20.0
 21
10.0
 31
0.0
  0
LINE
  5
AD
330
1F
100
AcDbEntity
  8
0
  6
Continuous
 62
     7
100
AcDbLine
 10
9.9
 20
-15.0
 30
0.0
 11
10.1
 21
-15.0
 31
0.0
  0
LINE
  5
AE
330
1F
100
AcDbEntity
  8
0
  6
Continuous
 62
     7
100
AcDbLine
 10
0.0
 20
10.0
 30
0.0
 11
0.0
 21
-5.1
 31
0.0
  0
LINE
  5
AF
330
1F
100
AcDbEntity
  8
0
  6
Continuous
 62
     7
100
AcDbLine
 10
20.0
 20
25.0
 30
0.0
 11
0.0
 21
25.0
 31
0.0
  0
LINE
  5
B0
330
1F
100
AcDbEntity
  8
0
  6
Continuous
 62
     7
100
AcDbLine
 10
-10.0
 20
15.0
 30
0.0
 11
-10.0
 21
-15.0
 31
0.0
  0
LINE
  5
B1
330
1F
100
AcDbEntity
  8
0
  6
Continuous
 62
     7
100
AcDbLine
 10
0.0
 20
-25.0
 30
0.0
 11
20.0
 21
-25.0
 31
0.0
  0
LINE
  5
B2
330
1F
100
AcDbEntity
  8
0
  6
Continuous
 62
     7
100
AcDbLine
 10
110.6742218615
 20
-15.0
 30
0.0
 11
120.6742218615
 21
-15.0
 31
0.0
  0
LINE
  5
B3
330
1F
100
AcDbEntity
  8
0
  6
Continuous
 62
     7
100
AcDbLine
 10
105.6742218615
 20
5.1
 30
0.0
 11
105.6742218615
 21
-10.0
 31
0.0
  0
LINE
  5
B4
330
1F
100
AcDbEntity
  8
0
  6
Continuous
 62
     7
100
AcDbLine
 10
115.7742218615
 20
15.0
 30
0.0
 11
115.5742218615
 21
15.0
 31
0.0
  0
LINE
  5
B5
330
1F
100
AcDbEntity
  8
0
  6
Continuous
 62
     7
100
AcDbLine
 10
65.0
 20
15.0
 30
0.0
 11
65.0
 21
10.0
 31
0.0
  0
LINE
  5
B6
330
1F
100
AcDbEntity
  8
0
  6
Continuous
 62
     7
100
AcDbLine
 10
75.5031130731
 20
0.0
 30
0.0
 11
65.0
 21
15.0
 31
0.0
  0
LINE
  5
B7
330
1F
100
AcDbEntity
  8
0
  6
Continuous
 62
     7
100
AcDbLine
 10
65.0
 20
-15.0
 30
0.0
 11
75.5031130731
 21
0.0
 31
0.0
  0
LINE
  5
B8
330
1F
100
AcDbEntity
  8
0
  6
Continuous
 62
     7
100
AcDbLine
 10
65.0
 20
-10.0
 30
0.0
 11
65.0
 21
-15.0
 31
0.0
  0
LINE
  5
B9
330
1F
100
AcDbEntity
  8
0
  6
Continuous
 62
     7
100
AcDbLine
 10
52.0
 20
-5.0
 30
0.0
 11
60.0
 21
-5.0
 31
0.0
  0
LINE
  5
BA
330
1F
100
AcDbEntity
  8
0
  6
Continuous
 62
     7
100
AcDbLine
 10
50.0
 20
-10.0
 30
0.0
 11
50.0
 21
-7.0
 31
0.0
  0
LINE
  5
BB
330
1F
100
AcDbEntity
  8
0
  6
Continuous
 62
     7
100
AcDbLine
 10
35.0
 20
-15.0
 30
0.0
 11
45.0
 21
-15.0
 31
0.0
  0
LINE
  5
BC
330
1F
100
AcDbEntity
  8
0
  6
Continuous
 62
     7
100
AcDbLine
 10
30.0
 20
10.0
 30
0.0
 11
30.0
 21
-10.0
 31
0.0
  0
LINE
  5
BD
330
1F
100
AcDbEntity
  8
0
  6
Continuous
 62
     7
100
AcDbLine
 10
45.0
 20
15.0
 30
0.0
 11
35.0
 21
15.0
 31
0.0
  0
LINE
  5
BE
330
1F
100
AcDbEntity
  8
0
  6
Continuous
 62
     7
100
AcDbLine
 10
50.0
 20
7.0
 30
0.0
 11
50.0
 21
10.0
 31
0.0
  0
LINE
  5
BF
330
1F
100
AcDbEntity
  8
0
  6
Continuous
 62
     7
100
AcDbLine
 10
60.0
 20
5.0
 30
0.0
 11
52.0
 21
5.0
 31
0.0
  0
LINE
  5
C0
330
1F
100
AcDbEntity
  8
0
  6
Continuous
 62
     7
100
AcDbLine
 10
125.6742218615
 20
-10.0
 30
0.0
 11
125.6742218615
 21
5.1
 31
0.0
  0
LINE
  5
C1
330
1F
100
AcDbEntity
  8
0
  6
Continuous
 62
     7
100
AcDbLine
 10
85.5031130731
 20
0.0
 30
0.0
 11
94.7646458394
 21
-13.2268395595
 31
0.0
  0
LINE
  5
C2
330
1F
100
AcDbEntity
  8
0
  6
Continuous
 62
     7
100
AcDbLine
 10
94.7646458394
 20
13.2268395595
 30
0.0
 11
85.5031130731
 21
0.0
 31
0.0
  0
LINE
  5
C3
330
1F
100
AcDbEntity
  8
0
  6
Continuous
 62
     7
100
AcDbLine
 10
95.6742218615
 20
-12.9400513413
 30
0.0
 11
95.6742218615
 21
12.9400513413
 31
0.0
  0
LINE
  5
C5
330
1F
100
AcDbEntity
  8
0
  6
Continuous
 62
     7
100
AcDbLine
 10
98.3
 20
25.0
 30
0.0
 11
86.276615765
 21
25.0
 31
0.0
  0
LINE
  5
C6
330
1F
100
AcDbEntity
  8
0
  6
Continuous
 62
     7
100
AcDbLine
 10
86.276615765
 20
25.0
 30
0.0
 11
80.5031130731
 21
15.0
 31
0.0
  0
LINE
  5
C7
330
1F
100
AcDbEntity
  8
0
  6
Continuous
 62
     7
100
AcDbLine
 10
80.5031130731
 20
15.0
 30
0.0
 11
74.7296103812
 21
25.0
 31
0.0
  0
LINE
  5
C8
330
1F
100
AcDbEntity
  8
0
  6
Continuous
 62
     7
100
AcDbLine
 10
74.7296103812
 20
25.0
 30
0.0
 11
64.9
 21
25.0
 31
0.0
  0
LINE
  5
C9
330
1F
100
AcDbEntity
  8
0
  6
Continuous
 62
     7
100
AcDbLine
 10
60.0
 20
20.1
 30
0.0
 11
60.0
 21
20.0
 31
0.0
  0
LINE
  5
CA
330
1F
100
AcDbEntity
  8
0
  6
Continuous
 62
     7
100
AcDbLine
 10
55.0
 20
25.0
 30
0.0
 11
30.0
 21
25.0
 31
0.0
  0
LINE
  5
CB
330
1F
100
AcDbEntity
  8
0
  6
Continuous
 62
     7
100
AcDbLine
 10
30.0
 20
-25.0
 30
0.0
 11
55.0
 21
-25.0
 31
0.0
  0
LINE
  5
CC
330
1F
100
AcDbEntity
  8
0
  6
Continuous
 62
     7
100
AcDbLine
 10
60.0
 20
-20.0
 30
0.0
 11
60.0
 21
-20.1
 31
0.0
  0
LINE
  5
CD
330
1F
100
AcDbEntity
  8
0
  6
Continuous
 62
     7
100
AcDbLine
 10
64.9
 20
-25.0
 30
0.0
 11
74.7296103812
 21
-25.0
 31
0.0
  0
LINE
  5
CE
330
1F
100
AcDbEntity
  8
0
  6
Continuous
 62
     7
100
AcDbLine
 10
74.7296103812
 20
-25.0
 30
0.0
 11
80.5031130731
 21
-15.0
 31
0.0
  0
LINE
  5
CF
330
1F
100
AcDbEntity
  8
0
  6
Continuous
 62
     7
100
AcDbLine
 10
80.5031130731
 20
-15.0
 30
0.0
 11
86.276615765
 21
-25.0
 31
0.0
  0
LINE
  5
D0
330
1F
100
AcDbEntity
  8
0
  6
Continuous
 62
     7
100
AcDbLine
 10
86.276615765
 20
-25.0
 30
0.0
 11
98.3
 21
-25.0
 31
0.0
  0
LINE
  5
D1
330
1F
100
AcDbEntity
  8
0
  6
Continuous
 62
     7
100
AcDbLine
 10
100.0
 20
-23.3
 30
0.0
 11
100.0
 21
-23.2342702328
 31
0.0
  0
LINE
  5
D2
330
1F
100
AcDbEntity
  8
0
  6
Continuous
 62
     7
100
AcDbLine
 10
105.6742218615
 20
-25.0
 30
0.0
 11
125.6742218615
 21
-25.0
 31
0.0
  0
LINE
  5
D3
330
1F
100
AcDbEntity
  8
0
  6
Continuous
 62
     7
100
AcDbLine
 10
135.6742218615
 20
-15.0
 30
0.0
 11
135.6742218615
 21
15.0
 31
0.0
  0
LINE
  5
D4
330
1F
100
AcDbEntity
  8
0
  6
Continuous
 62
     7
100
AcDbLine
 10
125.6742218615
 20
25.0
 30
0.0
 11
105.6742218615
 21
25.0
 31
0.0
  0
LINE
  5
D5
330
1F
100
AcDbEntity
  8
0
  6
Continuous
 62
     7
100
AcDbLine
 10
100.0
 20
23.2342702328
 30
0.0
 11
100.0
 21
23.3
 31
0.0
  0
LINE
  5
D7
330
1F
100
AcDbEntity
  8
0
  6
Continuous
 62
     7
100
AcDbLine
 10
-7.1132486541
 20
-35.0
 30
0.0
 11
42.6742218615
 21
-35.0
 31
0.0
  0
LINE
  5
D9
330
1F
100
AcDbEntity
  8
0
  6
Continuous
 62
     7
100
AcDbLine
 10
42.6742218615
 20
-45.0
 30
0.0
 11
42.6742218615
 21
-40.0
 31
0.0
  0
LINE
  5
DA
330
1F
100
AcDbEntity
  8
0
  6
Continuous
 62
     7
100
AcDbLine
 10
42.6742218615
 20
-30.0
 30
0.0
 11
-10.0
 21
-30.0
 31
0.0
  0
LINE
  5
DB
330
1F
100
AcDbEntity
  8
0
  6
Continuous
 62
     7
100
AcDbLine
 10
-10.0
 20
-30.0
 30
0.0
 11
-7.1132486541
 21
-35.0
 31
0.0
  0
LINE
  5
DC
330
1F
100
AcDbEntity
  8
0
  6
Continuous
 62
     7
100
AcDbLine
 10
-1.3397459622
 20
-45.0
 30
0.0
 11
42.6742218615
 21
-45.0
 31
0.0
  0
LINE
  5
DE
330
1F
100
AcDbEntity
  8
0
  6
Continuous
 62
     7
100
AcDbLine
 10
-4.2264973081
 20
-40.0
 30
0.0
 11
42.6742218615
 21
-40.0
 31
0.0
  0
LINE
  5
DF
330
1F
100
AcDbEntity
  8
0
  6
Continuous
 62
     7
100
AcDbLine
 10
-4.2264973081
 20
-40.0
 30
0.0
 11
-1.3397459622
 21
-45.0
 31
0.0
  0
LINE
  5
E1
330
1F
100
AcDbEntity
  8
0
  6
Continuous
 62
     7
100
AcDbLine
 10
42.6742218615
 20
-35.0
 30
0.0
 11
42.6742218615
 21
-30.0
 31
0.0
  0
LINE
  5
E3
330
1F
100
AcDbEntity
  8
0
  6
Continuous
 62
     7
100
AcDbLine
 10
133.7605927015
 20
-35.6368858954
 30
0.0
 11
133.7605927015
 21
-32.4366143615
 31
0.0
  0
LINE
  5
E4
330
1F
100
AcDbEntity
  8
0
  6
Continuous
 62
     7
100
AcDbLine
 10
131.3091267744
 20
-29.9910855784
 30
0.0
 11
126.3675657601
 21
-29.9881170064
 31
0.0
  0
LINE
  5
E5
330
1F
100
AcDbEntity
  8
0
  6
Continuous
 62
     7
100
AcDbLine
 10
126.3675657601
 20
-29.9881170064
 30
0.0
 11
126.3675657601
 21
-44.9881170064
 31
0.0
  0
LINE
  5
E6
330
1F
100
AcDbEntity
  8
0
  6
Continuous
 62
     7
100
AcDbLine
 10
126.3675657601
 20
-44.9881170064
 30
0.0
 11
128.8160602134
 21
-44.9881170064
 31
0.0
  0
LINE
  5
E7
330
1F
100
AcDbEntity
  8
0
  6
Continuous
 62
     7
100
AcDbLine
 10
128.8160602134
 20
-44.9881170064
 30
0.0
 11
128.8160602134
 21
-38.7123642331
 31
0.0
  0
LINE
  5
E8
330
1F
100
AcDbEntity
  8
0
  6
Continuous
 62
     7
100
AcDbLine
 10
128.8160602134
 20
-38.7123642331
 30
0.0
 11
130.6981871077
 21
-38.7123642331
 31
0.0
  0
LINE
  5
E9
330
1F
100
AcDbEntity
  8
0
  6
Continuous
 62
     7
100
AcDbLine
 10
131.3091267744
 20
-39.3304278922
 30
0.0
 11
131.3120953464
 21
-44.9881170064
 31
0.0
  0
LINE
  5
EA
330
1F
100
AcDbEntity
  8
0
  6
Continuous
 62
     7
100
AcDbLine
 10
131.3120953464
 20
-44.9881170064
 30
0.0
 11
133.7605927015
 21
-44.9881170064
 31
0.0
  0
LINE
  5
EB
330
1F
100
AcDbEntity
  8
0
  6
Continuous
 62
     7
100
AcDbLine
 10
133.7605927015
 20
-44.9881170064
 30
0.0
 11
133.7605927015
 21
-39.329476092
 31
0.0
  0
LINE
  5
EC
330
1F
100
AcDbEntity
  8
0
  6
Continuous
 62
     7
100
AcDbLine
 10
132.9226370755
 20
-37.479199683
 30
0.0
 11
132.9245261668
 21
-37.4781579261
 31
0.0
  0
LINE
  5
ED
330
1F
100
AcDbEntity
  8
0
  6
Continuous
 62
     7
100
AcDbLine
 10
128.8160602134
 20
-36.263866878
 30
0.0
 11
128.8160602134
 21
-32.4366143615
 31
0.0
  0
LINE
  5
EE
330
1F
100
AcDbEntity
  8
0
  6
Continuous
 62
     7
100
AcDbLine
 10
128.8160602134
 20
-32.4366143615
 30
0.0
 11
131.3120953464
 21
-32.4366143615
 31
0.0
  0
LINE
  5
EF
330
1F
100
AcDbEntity
  8
0
  6
Continuous
 62
     7
100
AcDbLine
 10
131.3120953464
 20
-32.4366143615
 30
0.0
 11
131.3120953464
 21
-36.263866878
 31
0.0
  0
LINE
  5
F0
330
1F
100
AcDbEntity
  8
0
  6
Continuous
 62
     7
100
AcDbLine
 10
131.3120953464
 20
-36.263866878
 30
0.0
 11
128.8160602134
 21
-36.263866878
 31
0.0
  0
LINE
  5
F1
330
1F
100
AcDbEntity
  8
0
  6
Continuous
 62
     7
100
AcDbLine
 10
123.7148637308
 20
-42.5396196513
 30
0.0
 11
121.2090871547
 21
-42.5396196513
 31
0.0
  0
LINE
  5
F2
330
1F
100
AcDbEntity
  8
0
  6
Continuous
 62
     7
100
AcDbLine
 10
121.2090871547
 20
-42.5396196513
 30
0.0
 11
121.2090871547
 21
-38.7123642331
 31
0.0
  0
LINE
  5
F3
330
1F
100
AcDbEntity
  8
0
  6
Continuous
 62
     7
100
AcDbLine
 10
121.2090871547
 20
-38.7123642331
 30
0.0
 11
124.659664735
 21
-38.7123642331
 31
0.0
  0
LINE
  5
F4
330
1F
100
AcDbEntity
  8
0
  6
Continuous
 62
     7
100
AcDbLine
 10
124.659664735
 20
-38.7123642331
 30
0.0
 11
124.659664735
 21
-36.263866878
 31
0.0
  0
LINE
  5
F5
330
1F
100
AcDbEntity
  8
0
  6
Continuous
 62
     7
100
AcDbLine
 10
124.659664735
 20
-36.263866878
 30
0.0
 11
123.7148637308
 21
-36.263866878
 31
0.0
  0
LINE
  5
F6
330
1F
100
AcDbEntity
  8
0
  6
Continuous
 62
     7
100
AcDbLine
 10
123.7148637308
 20
-36.263866878
 30
0.0
 11
121.2090871547
 21
-36.263866878
 31
0.0
  0
LINE
  5
F7
330
1F
100
AcDbEntity
  8
0
  6
Continuous
 62
     7
100
AcDbLine
 10
121.2090871547
 20
-36.263866878
 30
0.0
 11
121.2090871547
 21
-32.4366143615
 31
0.0
  0
LINE
  5
F8
330
1F
100
AcDbEntity
  8
0
  6
Continuous
 62
     7
100
AcDbLine
 10
121.2090871547
 20
-32.4366143615
 30
0.0
 11
124.659664735
 21
-32.4366143615
 31
0.0
  0
LINE
  5
F9
330
1F
100
AcDbEntity
  8
0
  6
Continuous
 62
     7
100
AcDbLine
 10
124.659664735
 20
-32.4366143615
 30
0.0
 11
124.659664735
 21
-29.9881170064
 31
0.0
  0
LINE
  5
FA
330
1F
100
AcDbEntity
  8
0
  6
Continuous
 62
     7
100
AcDbLine
 10
124.659664735
 20
-29.9881170064
 30
0.0
 11
123.7148637308
 21
-29.9881170064
 31
0.0
  0
LINE
  5
FB
330
1F
100
AcDbEntity
  8
0
  6
Continuous
 62
     7
100
AcDbLine
 10
123.7148637308
 20
-29.9881170064
 30
0.0
 11
121.2090871547
 21
-29.9881170064
 31
0.0
  0
LINE
  5
FC
330
1F
100
AcDbEntity
  8
0
  6
Continuous
 62
     7
100
AcDbLine
 10
118.7605927015
 20
-32.4395800317
 30
0.0
 11
118.7605927015
 21
-35.6364622282
 31
0.0
  0
LINE
  5
FD
330
1F
100
AcDbEntity
  8
0
  6
Continuous
 62
     7
100
AcDbLine
 10
118.7605927015
 20
-35.6364622282
 30
0.0
 11
118.7605927015
 21
-42.5396196513
 31
0.0
  0
LINE
  5
FE
330
1F
100
AcDbEntity
  8
0
  6
Continuous
 62
     7
100
AcDbLine
 10
121.2090871547
 20
-44.9881141046
 30
0.0
 11
124.659664735
 21
-44.9881141046
 31
0.0
  0
LINE
  5
FF
330
1F
100
AcDbEntity
  8
0
  6
Continuous
 62
     7
100
AcDbLine
 10
124.659664735
 20
-44.9881141046
 30
0.0
 11
124.659664735
 21
-42.5396196513
 31
0.0
  0
LINE
  5
100
330
1F
100
AcDbEntity
  8
0
  6
Continuous
 62
     7
100
AcDbLine
 10
124.659664735
 20
-42.5396196513
 30
0.0
 11
123.7148637308
 21
-42.5396196513
 31
0.0
  0
LINE
  5
101
330
1F
100
AcDbEntity
  8
0
  6
Continuous
 62
     7
100
AcDbLine
 10
116.1078906722
 20
-42.5396196513
 30
0.0
 11
113.6021140961
 21
-42.5396196513
 31
0.0
  0
LINE
  5
102
330
1F
100
AcDbEntity
  8
0
  6
Continuous
 62
     7
100
AcDbLine
 10
113.6021140961
 20
-42.5396196513
 30
0.0
 11
113.6021140961
 21
-29.9881170064
 31
0.0
  0
LINE
  5
103
330
1F
100
AcDbEntity
  8
0
  6
Continuous
 62
     7
100
AcDbLine
 10
113.6021140961
 20
-29.9881170064
 30
0.0
 11
111.1536196428
 21
-29.9881170064
 31
0.0
  0
LINE
  5
104
330
1F
100
AcDbEntity
  8
0
  6
Continuous
 62
     7
100
AcDbLine
 10
111.1536196428
 20
-29.9881170064
 30
0.0
 11
111.1536196428
 21
-44.9881141046
 31
0.0
  0
LINE
  5
105
330
1F
100
AcDbEntity
  8
0
  6
Continuous
 62
     7
100
AcDbLine
 10
111.1536196428
 20
-44.9881141046
 30
0.0
 11
117.0526916763
 21
-44.9881141046
 31
0.0
  0
LINE
  5
106
330
1F
100
AcDbEntity
  8
0
  6
Continuous
 62
     7
100
AcDbLine
 10
117.0526916763
 20
-44.9881141046
 30
0.0
 11
117.0526916763
 21
-42.5396196513
 31
0.0
  0
LINE
  5
107
330
1F
100
AcDbEntity
  8
0
  6
Continuous
 62
     7
100
AcDbLine
 10
117.0526916763
 20
-42.5396196513
 30
0.0
 11
116.1078906722
 21
-42.5396196513
 31
0.0
  0
LINE
  5
108
330
1F
100
AcDbEntity
  8
0
  6
Continuous
 62
     7
100
AcDbLine
 10
108.5009176136
 20
-42.5396196513
 30
0.0
 11
105.9951410375
 21
-42.5396196513
 31
0.0
  0
LINE
  5
109
330
1F
100
AcDbEntity
  8
0
  6
Continuous
 62
     7
100
AcDbLine
 10
105.9951410375
 20
-42.5396196513
 30
0.0
 11
105.9951410375
 21
-29.9881170064
 31
0.0
  0
LINE
  5
10A
330
1F
100
AcDbEntity
  8
0
  6
Continuous
 62
     7
100
AcDbLine
 10
105.9951410375
 20
-29.9881170064
 30
0.0
 11
103.5466465842
 21
-29.9881170064
 31
0.0
  0
LINE
  5
10B
330
1F
100
AcDbEntity
  8
0
  6
Continuous
 62
     7
100
AcDbLine
 10
103.5466465842
 20
-29.9881170064
 30
0.0
 11
103.5466465842
 21
-44.9881141046
 31
0.0
  0
LINE
  5
10C
330
1F
100
AcDbEntity
  8
0
  6
Continuous
 62
     7
100
AcDbLine
 10
103.5466465842
 20
-44.9881141046
 30
0.0
 11
109.4457186177
 21
-44.9881141046
 31
0.0
  0
LINE
  5
10D
330
1F
100
AcDbEntity
  8
0
  6
Continuous
 62
     7
100
AcDbLine
 10
109.4457186177
 20
-44.9881141046
 30
0.0
 11
109.4457186177
 21
-42.5396196513
 31
0.0
  0
LINE
  5
10E
330
1F
100
AcDbEntity
  8
0
  6
Continuous
 62
     7
100
AcDbLine
 10
109.4457186177
 20
-42.5396196513
 30
0.0
 11
108.5009176136
 21
-42.5396196513
 31
0.0
  0
LINE
  5
10F
330
1F
100
AcDbEntity
  8
0
  6
Continuous
 62
     7
100
AcDbLine
 10
99.1696656016
 20
-29.9910855784
 30
0.0
 11
96.6765990406
 21
-29.9881170064
 31
0.0
  0
LINE
  5
110
330
1F
100
AcDbEntity
  8
0
  6
Continuous
 62
     7
100
AcDbLine
 10
94.2281045874
 20
-32.4395800317
 30
0.0
 11
94.2281045874
 21
-42.5396196513
 31
0.0
  0
LINE
  5
111
330
1F
100
AcDbEntity
  8
0
  6
Continuous
 62
     7
100
AcDbLine
 10
96.6765990406
 20
-44.9881141046
 30
0.0
 11
99.1726341737
 21
-44.9881141046
 31
0.0
  0
LINE
  5
112
330
1F
100
AcDbEntity
  8
0
  6
Continuous
 62
     7
100
AcDbLine
 10
101.6211315287
 20
-42.5396196513
 30
0.0
 11
101.6211315287
 21
-32.4366143615
 31
0.0
  0
LINE
  5
113
330
1F
100
AcDbEntity
  8
0
  6
Continuous
 62
     7
100
AcDbLine
 10
96.6765990406
 20
-42.5396196513
 30
0.0
 11
96.6765990406
 21
-32.4366143615
 31
0.0
  0
LINE
  5
114
330
1F
100
AcDbEntity
  8
0
  6
Continuous
 62
     7
100
AcDbLine
 10
96.6765990406
 20
-32.4366143615
 30
0.0
 11
99.1726341737
 21
-32.4366143615
 31
0.0
  0
LINE
  5
115
330
1F
100
AcDbEntity
  8
0
  6
Continuous
 62
     7
100
AcDbLine
 10
99.1726341737
 20
-32.4366143615
 30
0.0
 11
99.1726341737
 21
-42.5396196513
 31
0.0
  0
LINE
  5
116
330
1F
100
AcDbEntity
  8
0
  6
Continuous
 62
     7
100
AcDbLine
 10
99.1726341737
 20
-42.5396196513
 30
0.0
 11
96.6765990406
 21
-42.5396196513
 31
0.0
  0
LINE
  5
117
330
1F
100
AcDbEntity
  8
0
  6
Continuous
 62
     7
100
AcDbLine
 10
92.3025895319
 20
-35.6368858954
 30
0.0
 11
92.3025895319
 21
-32.4366143615
 31
0.0
  0
LINE
  5
118
330
1F
100
AcDbEntity
  8
0
  6
Continuous
 62
     7
100
AcDbLine
 10
89.8511236048
 20
-29.9910855784
 30
0.0
 11
84.9095625905
 21
-29.9881170064
 31
0.0
  0
LINE
  5
119
330
1F
100
AcDbEntity
  8
0
  6
Continuous
 62
     7
100
AcDbLine
 10
84.9095625905
 20
-29.9881170064
 30
0.0
 11
84.9095625905
 21
-44.9881170064
 31
0.0
  0
LINE
  5
11A
330
1F
100
AcDbEntity
  8
0
  6
Continuous
 62
     7
100
AcDbLine
 10
84.9095625905
 20
-44.9881170064
 30
0.0
 11
87.3580570438
 21
-44.9881170064
 31
0.0
  0
LINE
  5
11B
330
1F
100
AcDbEntity
  8
0
  6
Continuous
 62
     7
100
AcDbLine
 10
87.3580570438
 20
-44.9881170064
 30
0.0
 11
87.3580570438
 21
-38.7123642331
 31
0.0
  0
LINE
  5
11C
330
1F
100
AcDbEntity
  8
0
  6
Continuous
 62
     7
100
AcDbLine
 10
87.3580570438
 20
-38.7123642331
 30
0.0
 11
89.2401839381
 21
-38.7123642331
 31
0.0
  0
LINE
  5
11D
330
1F
100
AcDbEntity
  8
0
  6
Continuous
 62
     7
100
AcDbLine
 10
89.8511236048
 20
-39.3304278922
 30
0.0
 11
89.8540921768
 21
-44.9881170064
 31
0.0
  0
LINE
  5
11E
330
1F
100
AcDbEntity
  8
0
  6
Continuous
 62
     7
100
AcDbLine
 10
89.8540921768
 20
-44.9881170064
 30
0.0
 11
92.3025895319
 21
-44.9881170064
 31
0.0
  0
LINE
  5
11F
330
1F
100
AcDbEntity
  8
0
  6
Continuous
 62
     7
100
AcDbLine
 10
92.3025895319
 20
-44.9881170064
 30
0.0
 11
92.3025895319
 21
-39.329476092
 31
0.0
  0
LINE
  5
120
330
1F
100
AcDbEntity
  8
0
  6
Continuous
 62
     7
100
AcDbLine
 10
91.4646339059
 20
-37.479199683
 30
0.0
 11
91.4665229972
 21
-37.4781579261
 31
0.0
  0
LINE
  5
121
330
1F
100
AcDbEntity
  8
0
  6
Continuous
 62
     7
100
AcDbLine
 10
87.3580570438
 20
-36.263866878
 30
0.0
 11
87.3580570438
 21
-32.4366143615
 31
0.0
  0
LINE
  5
122
330
1F
100
AcDbEntity
  8
0
  6
Continuous
 62
     7
100
AcDbLine
 10
87.3580570438
 20
-32.4366143615
 30
0.0
 11
89.8540921768
 21
-32.4366143615
 31
0.0
  0
LINE
  5
123
330
1F
100
AcDbEntity
  8
0
  6
Continuous
 62
     7
100
AcDbLine
 10
89.8540921768
 20
-32.4366143615
 30
0.0
 11
89.8540921768
 21
-36.263866878
 31
0.0
  0
LINE
  5
124
330
1F
100
AcDbEntity
  8
0
  6
Continuous
 62
     7
100
AcDbLine
 10
89.8540921768
 20
-36.263866878
 30
0.0
 11
87.3580570438
 21
-36.263866878
 31
0.0
  0
LINE
  5
125
330
1F
100
AcDbEntity
  8
0
  6
Continuous
 62
     7
100
AcDbLine
 10
75.7476816863
 20
-29.9881170064
 30
0.0
 11
75.7476816863
 21
-32.4366143615
 31
0.0
  0
LINE
  5
126
330
1F
100
AcDbEntity
  8
0
  6
Continuous
 62
     7
100
AcDbLine
 10
75.7476816863
 20
-32.4366143615
 30
0.0
 11
78.2534582624
 21
-32.4366143615
 31
0.0
  0
LINE
  5
127
330
1F
100
AcDbEntity
  8
0
  6
Continuous
 62
     7
100
AcDbLine
 10
78.2534582624
 20
-32.4366143615
 30
0.0
 11
78.2534582624
 21
-44.9881170064
 31
0.0
  0
LINE
  5
128
330
1F
100
AcDbEntity
  8
0
  6
Continuous
 62
     7
100
AcDbLine
 10
78.2534582624
 20
-44.9881170064
 30
0.0
 11
80.7019556175
 21
-44.9881170064
 31
0.0
  0
LINE
  5
129
330
1F
100
AcDbEntity
  8
0
  6
Continuous
 62
     7
100
AcDbLine
 10
80.7019556175
 20
-44.9881170064
 30
0.0
 11
80.7019556175
 21
-32.4366143615
 31
0.0
  0
LINE
  5
12A
330
1F
100
AcDbEntity
  8
0
  6
Continuous
 62
     7
100
AcDbLine
 10
80.7019556175
 20
-32.4366143615
 30
0.0
 11
83.2282713459
 21
-32.4366143615
 31
0.0
  0
LINE
  5
12B
330
1F
100
AcDbEntity
  8
0
  6
Continuous
 62
     7
100
AcDbLine
 10
83.2282713459
 20
-32.4366143615
 30
0.0
 11
83.2282713459
 21
-29.9881170064
 31
0.0
  0
LINE
  5
12C
330
1F
100
AcDbEntity
  8
0
  6
Continuous
 62
     7
100
AcDbLine
 10
83.2282713459
 20
-29.9881170064
 30
0.0
 11
75.7476816863
 21
-29.9881170064
 31
0.0
  0
LINE
  5
12D
330
1F
100
AcDbEntity
  8
0
  6
Continuous
 62
     7
100
AcDbLine
 10
71.4042139376
 20
-29.9910855784
 30
0.0
 11
70.1590793391
 21
-29.9881170064
 31
0.0
  0
LINE
  5
12E
330
1F
100
AcDbEntity
  8
0
  6
Continuous
 62
     7
100
AcDbLine
 10
68.9111473766
 20
-30.3120047544
 30
0.0
 11
68.9111473766
 21
-29.9881170064
 31
0.0
  0
LINE
  5
12F
330
1F
100
AcDbEntity
  8
0
  6
Continuous
 62
     7
100
AcDbLine
 10
68.9111473766
 20
-29.9881170064
 30
0.0
 11
66.4626529234
 21
-29.9881170064
 31
0.0
  0
LINE
  5
130
330
1F
100
AcDbEntity
  8
0
  6
Continuous
 62
     7
100
AcDbLine
 10
66.4626529234
 20
-29.9881170064
 30
0.0
 11
66.4626529234
 21
-44.9881170064
 31
0.0
  0
LINE
  5
131
330
1F
100
AcDbEntity
  8
0
  6
Continuous
 62
     7
100
AcDbLine
 10
66.4626529234
 20
-44.9881170064
 30
0.0
 11
68.9111473766
 21
-44.9881170064
 31
0.0
  0
LINE
  5
132
330
1F
100
AcDbEntity
  8
0
  6
Continuous
 62
     7
100
AcDbLine
 10
68.9111473766
 20
-44.9881170064
 30
0.0
 11
68.9111473766
 21
-32.4366143615
 31
0.0
  0
LINE
  5
133
330
1F
100
AcDbEntity
  8
0
  6
Continuous
 62
     7
100
AcDbLine
 10
68.9111473766
 20
-32.4366143615
 30
0.0
 11
71.4071825096
 21
-32.4366143615
 31
0.0
  0
LINE
  5
134
330
1F
100
AcDbEntity
  8
0
  6
Continuous
 62
     7
100
AcDbLine
 10
71.4071825096
 20
-32.4366143615
 30
0.0
 11
71.4071825096
 21
-44.9881170064
 31
0.0
  0
LINE
  5
135
330
1F
100
AcDbEntity
  8
0
  6
Continuous
 62
     7
100
AcDbLine
 10
71.4071825096
 20
-44.9881170064
 30
0.0
 11
73.8556798647
 21
-44.9881170064
 31
0.0
  0
LINE
  5
136
330
1F
100
AcDbEntity
  8
0
  6
Continuous
 62
     7
100
AcDbLine
 10
73.8556798647
 20
-44.9881170064
 30
0.0
 11
73.8556798647
 21
-32.4366143615
 31
0.0
  0
LINE
  5
137
330
1F
100
AcDbEntity
  8
0
  6
Continuous
 62
     7
100
AcDbLine
 10
62.0856719408
 20
-29.9910855784
 30
0.0
 11
59.5926053798
 21
-29.9881170064
 31
0.0
  0
LINE
  5
138
330
1F
100
AcDbEntity
  8
0
  6
Continuous
 62
     7
100
AcDbLine
 10
57.1441109265
 20
-32.4395800317
 30
0.0
 11
57.1441109265
 21
-42.5396196513
 31
0.0
  0
LINE
  5
139
330
1F
100
AcDbEntity
  8
0
  6
Continuous
 62
     7
100
AcDbLine
 10
59.5926053798
 20
-44.9881141046
 30
0.0
 11
62.0886405128
 21
-44.9881141046
 31
0.0
  0
LINE
  5
13A
330
1F
100
AcDbEntity
  8
0
  6
Continuous
 62
     7
100
AcDbLine
 10
64.5371378679
 20
-42.5396196513
 30
0.0
 11
64.5371378679
 21
-32.4366143615
 31
0.0
  0
LINE
  5
13B
330
1F
100
AcDbEntity
  8
0
  6
Continuous
 62
     7
100
AcDbLine
 10
59.5926053798
 20
-42.5396196513
 30
0.0
 11
59.5926053798
 21
-32.4366143615
 31
0.0
  0
LINE
  5
13C
330
1F
100
AcDbEntity
  8
0
  6
Continuous
 62
     7
100
AcDbLine
 10
59.5926053798
 20
-32.4366143615
 30
0.0
 11
62.0886405128
 21
-32.4366143615
 31
0.0
  0
LINE
  5
13D
330
1F
100
AcDbEntity
  8
0
  6
Continuous
 62
     7
100
AcDbLine
 10
62.0886405128
 20
-32.4366143615
 30
0.0
 11
62.0886405128
 21
-42.5396196513
 31
0.0
  0
LINE
  5
13E
330
1F
100
AcDbEntity
  8
0
  6
Continuous
 62
     7
100
AcDbLine
 10
62.0886405128
 20
-42.5396196513
 30
0.0
 11
59.5926053798
 21
-42.5396196513
 31
0.0
  0
LINE
  5
13F
330
1F
100
AcDbEntity
  8
0
  6
Continuous
 62
     7
100
AcDbLine
 10
52.770098516
 20
-40.6388049723
 30
0.0
 11
52.770098516
 21
-42.5396196513
 31
0.0
  0
LINE
  5
140
330
1F
100
AcDbEntity
  8
0
  6
Continuous
 62
     7
100
AcDbLine
 10
52.770098516
 20
-42.5396196513
 30
0.0
 11
50.2740633829
 21
-42.5396196513
 31
0.0
  0
LINE
  5
141
330
1F
100
AcDbEntity
  8
0
  6
Continuous
 62
     7
100
AcDbLine
 10
50.2740633829
 20
-42.5396196513
 30
0.0
 11
50.2740633829
 21
-32.4366143615
 31
0.0
  0
LINE
  5
142
330
1F
100
AcDbEntity
  8
0
  6
Continuous
 62
     7
100
AcDbLine
 10
50.2740633829
 20
-32.4366143615
 30
0.0
 11
52.770098516
 21
-32.4366143615
 31
0.0
  0
LINE
  5
143
330
1F
100
AcDbEntity
  8
0
  6
Continuous
 62
     7
100
AcDbLine
 10
52.770098516
 20
-32.4366143615
 30
0.0
 11
52.770098516
 21
-34.3371910905
 31
0.0
  0
LINE
  5
144
330
1F
100
AcDbEntity
  8
0
  6
Continuous
 62
     7
100
AcDbLine
 10
52.770098516
 20
-34.3371910905
 30
0.0
 11
55.2185958711
 21
-34.3371910905
 31
0.0
  0
LINE
  5
145
330
1F
100
AcDbEntity
  8
0
  6
Continuous
 62
     7
100
AcDbLine
 10
55.2185958711
 20
-34.3371910905
 30
0.0
 11
55.2185958711
 21
-32.4366143615
 31
0.0
  0
LINE
  5
146
330
1F
100
AcDbEntity
  8
0
  6
Continuous
 62
     7
100
AcDbLine
 10
52.767129944
 20
-29.9910855784
 30
0.0
 11
50.2740633829
 21
-29.9881170064
 31
0.0
  0
LINE
  5
147
330
1F
100
AcDbEntity
  8
0
  6
Continuous
 62
     7
100
AcDbLine
 10
47.8255689297
 20
-32.4395800317
 30
0.0
 11
47.8255689297
 21
-42.5396196513
 31
0.0
  0
LINE
  5
148
330
1F
100
AcDbEntity
  8
0
  6
Continuous
 62
     7
100
AcDbLine
 10
50.2740633829
 20
-44.9881141046
 30
0.0
 11
52.770098516
 21
-44.9881141046
 31
0.0
  0
LINE
  5
149
330
1F
100
AcDbEntity
  8
0
  6
Continuous
 62
     7
100
AcDbLine
 10
55.2185958711
 20
-42.5396196513
 30
0.0
 11
55.2185958711
 21
-40.6388049723
 31
0.0
  0
LINE
  5
14A
330
1F
100
AcDbEntity
  8
0
  6
Continuous
 62
     7
100
AcDbLine
 10
55.2185958711
 20
-40.6388049723
 30
0.0
 11
52.770098516
 21
-40.6388049723
 31
0.0
  0
LINE
  5
14B
330
1F
100
AcDbEntity
  8
0
  6
Continuous
 62
     7
100
AcDbLine
 10
42.6742218615
 20
-45.0
 30
0.0
 11
42.6742218615
 21
-40.0
 31
0.0
  0
LINE
  5
14C
330
1F
100
AcDbEntity
  8
0
  6
Continuous
 62
     7
100
AcDbLine
 10
42.6742218615
 20
-40.0
 30
0.0
 11
-4.2264973081
 21
-40.0
 31
0.0
  0
LINE
  5
14D
330
1F
100
AcDbEntity
  8
0
  6
Continuous
 62
     7
100
AcDbLine
 10
-4.2264973081
 20
-40.0
 30
0.0
 11
-1.3397459622
 21
-45.0
 31
0.0
  0
LINE
  5
14E
330
1F
100
AcDbEntity
  8
0
  6
Continuous
 62
     7
100
AcDbLine
 10
-1.3397459622
 20
-45.0
 30
0.0
 11
42.6742218615
 21
-45.0
 31
0.0
  0
LINE
  5
14F
330
1F
100
AcDbEntity
  8
0
  6
Continuous
 62
     7
100
AcDbLine
 10
-7.1132486541
 20
-35.0
 30
0.0
 11
42.6742218615
 21
-35.0
 31
0.0
  0
LINE
  5
150
330
1F
100
AcDbEntity
  8
0
  6
Continuous
 62
     7
100
AcDbLine
 10
42.6742218615
 20
-35.0
 30
0.0
 11
42.6742218615
 21
-30.0
 31
0.0
  0
LINE
  5
151
330
1F
100
AcDbEntity
  8
0
  6
Continuous
 62
     7
100
AcDbLine
 10
42.6742218615
 20
-30.0
 30
0.0
 11
-10.0
 21
-30.0
 31
0.0
  0
LINE
  5
152
330
1F
100
AcDbEntity
  8
0
  6
Continuous
 62
     7
100
AcDbLine
 10
-10.0
 20
-30.0
 30
0.0
 11
-7.1132486541
 21
-35.0
 31
0.0
  0
LINE
  5
153
330
1F
100
AcDbEntity
  8
0
  6
Continuous
 62
     7
100
AcDbLine
 10
128.8160602134
 20
-32.4366143615
 30
0.0
 11
128.8160602134
 21
-36.263866878
 31
0.0
  0
LINE
  5
154
330
1F
100
AcDbEntity
  8
0
  6
Continuous
 62
     7
100
AcDbLine
 10
131.3120953464
 20
-32.4366143615
 30
0.0
 11
128.8160602134
 21
-32.4366143615
 31
0.0
  0
LINE
  5
155
330
1F
100
AcDbEntity
  8
0
  6
Continuous
 62
     7
100
AcDbLine
 10
131.3120953464
 20
-36.263866878
 30
0.0
 11
131.3120953464
 21
-32.4366143615
 31
0.0
  0
LINE
  5
156
330
1F
100
AcDbEntity
  8
0
  6
Continuous
 62
     7
100
AcDbLine
 10
128.8160602134
 20
-36.263866878
 30
0.0
 11
131.3120953464
 21
-36.263866878
 31
0.0
  0
LINE
  5
157
330
1F
100
AcDbEntity
  8
0
  6
Continuous
 62
     7
100
AcDbLine
 10
59.5926053798
 20
-32.4366143615
 30
0.0
 11
59.5926053798
 21
-42.5396196513
 31
0.0
  0
LINE
  5
158
330
1F
100
AcDbEntity
  8
0
  6
Continuous
 62
     7
100
AcDbLine
 10
62.0886405128
 20
-32.4366143615
 30
0.0
 11
59.5926053798
 21
-32.4366143615
 31
0.0
  0
LINE
  5
159
330
1F
100
AcDbEntity
  8
0
  6
Continuous
 62
     7
100
AcDbLine
 10
133.7605927015
 20
-44.9881170064
 30
0.0
 11
133.7605927015
 21
-39.329476092
 31
0.0
  0
LINE
  5
15A
330
1F
100
AcDbEntity
  8
0
  6
Continuous
 62
     7
100
AcDbLine
 10
131.3120953464
 20
-44.9881170064
 30
0.0
 11
133.7605927015
 21
-44.9881170064
 31
0.0
  0
LINE
  5
15B
330
1F
100
AcDbEntity
  8
0
  6
Continuous
 62
     7
100
AcDbLine
 10
131.3091267744
 20
-39.3304278922
 30
0.0
 11
131.3120953464
 21
-44.9881170064
 31
0.0
  0
LINE
  5
15C
330
1F
100
AcDbEntity
  8
0
  6
Continuous
 62
     7
100
AcDbLine
 10
128.8160602134
 20
-38.7123642331
 30
0.0
 11
130.6981871077
 21
-38.7123642331
 31
0.0
  0
LINE
  5
15D
330
1F
100
AcDbEntity
  8
0
  6
Continuous
 62
     7
100
AcDbLine
 10
128.8160602134
 20
-44.9881170064
 30
0.0
 11
128.8160602134
 21
-38.7123642331
 31
0.0
  0
LINE
  5
15E
330
1F
100
AcDbEntity
  8
0
  6
Continuous
 62
     7
100
AcDbLine
 10
126.3675657601
 20
-44.9881170064
 30
0.0
 11
128.8160602134
 21
-44.9881170064
 31
0.0
  0
LINE
  5
15F
330
1F
100
AcDbEntity
  8
0
  6
Continuous
 62
     7
100
AcDbLine
 10
126.3675657601
 20
-29.9881170064
 30
0.0
 11
126.3675657601
 21
-44.9881170064
 31
0.0
  0
LINE
  5
160
330
1F
100
AcDbEntity
  8
0
  6
Continuous
 62
     7
100
AcDbLine
 10
131.3091267744
 20
-29.9910855784
 30
0.0
 11
126.3675657601
 21
-29.9881170064
 31
0.0
  0
LINE
  5
161
330
1F
100
AcDbEntity
  8
0
  6
Continuous
 62
     7
100
AcDbLine
 10
133.7605927015
 20
-35.6368858954
 30
0.0
 11
133.7605927015
 21
-32.4366143615
 31
0.0
  0
LINE
  5
162
330
1F
100
AcDbEntity
  8
0
  6
Continuous
 62
     7
100
AcDbLine
 10
132.9226370755
 20
-37.479199683
 30
0.0
 11
132.9245261668
 21
-37.4781579261
 31
0.0
  0
LINE
  5
163
330
1F
100
AcDbEntity
  8
0
  6
Continuous
 62
     7
100
AcDbLine
 10
62.0886405128
 20
-42.5396196513
 30
0.0
 11
62.0886405128
 21
-32.4366143615
 31
0.0
  0
LINE
  5
164
330
1F
100
AcDbEntity
  8
0
  6
Continuous
 62
     7
100
AcDbLine
 10
59.5926053798
 20
-42.5396196513
 30
0.0
 11
62.0886405128
 21
-42.5396196513
 31
0.0
  0
LINE
  5
165
330
1F
100
AcDbEntity
  8
0
  6
Continuous
 62
     7
100
AcDbLine
 10
59.5926053798
 20
-44.9881141046
 30
0.0
 11
62.0886405128
 21
-44.9881141046
 31
0.0
  0
LINE
  5
166
330
1F
100
AcDbEntity
  8
0
  6
Continuous
 62
     7
100
AcDbLine
 10
57.1441109265
 20
-32.4395800317
 30
0.0
 11
57.1441109265
 21
-42.5396196513
 31
0.0
  0
LINE
  5
167
330
1F
100
AcDbEntity
  8
0
  6
Continuous
 62
     7
100
AcDbLine
 10
62.0856719408
 20
-29.9910855784
 30
0.0
 11
59.5926053798
 21
-29.9881170064
 31
0.0
  0
LINE
  5
168
330
1F
100
AcDbEntity
  8
0
  6
Continuous
 62
     7
100
AcDbLine
 10
64.5371378679
 20
-42.5396196513
 30
0.0
 11
64.5371378679
 21
-32.4366143615
 31
0.0
  0
LINE
  5
169
330
1F
100
AcDbEntity
  8
0
  6
Continuous
 62
     7
100
AcDbLine
 10
116.1078906722
 20
-42.5396196513
 30
0.0
 11
113.6021140961
 21
-42.5396196513
 31
0.0
  0
LINE
  5
16A
330
1F
100
AcDbEntity
  8
0
  6
Continuous
 62
     7
100
AcDbLine
 10
113.6021140961
 20
-42.5396196513
 30
0.0
 11
113.6021140961
 21
-29.9881170064
 31
0.0
  0
LINE
  5
16B
330
1F
100
AcDbEntity
  8
0
  6
Continuous
 62
     7
100
AcDbLine
 10
113.6021140961
 20
-29.9881170064
 30
0.0
 11
111.1536196428
 21
-29.9881170064
 31
0.0
  0
LINE
  5
16C
330
1F
100
AcDbEntity
  8
0
  6
Continuous
 62
     7
100
AcDbLine
 10
111.1536196428
 20
-29.9881170064
 30
0.0
 11
111.1536196428
 21
-44.9881141046
 31
0.0
  0
LINE
  5
16D
330
1F
100
AcDbEntity
  8
0
  6
Continuous
 62
     7
100
AcDbLine
 10
111.1536196428
 20
-44.9881141046
 30
0.0
 11
117.0526916763
 21
-44.9881141046
 31
0.0
  0
LINE
  5
16E
330
1F
100
AcDbEntity
  8
0
  6
Continuous
 62
     7
100
AcDbLine
 10
117.0526916763
 20
-44.9881141046
 30
0.0
 11
117.0526916763
 21
-42.5396196513
 31
0.0
  0
LINE
  5
16F
330
1F
100
AcDbEntity
  8
0
  6
Continuous
 62
     7
100
AcDbLine
 10
117.0526916763
 20
-42.5396196513
 30
0.0
 11
116.1078906722
 21
-42.5396196513
 31
0.0
  0
LINE
  5
170
330
1F
100
AcDbEntity
  8
0
  6
Continuous
 62
     7
100
AcDbLine
 10
103.5466465842
 20
-44.9881141046
 30
0.0
 11
109.4457186177
 21
-44.9881141046
 31
0.0
  0
LINE
  5
171
330
1F
100
AcDbEntity
  8
0
  6
Continuous
 62
     7
100
AcDbLine
 10
109.4457186177
 20
-44.9881141046
 30
0.0
 11
109.4457186177
 21
-42.5396196513
 31
0.0
  0
LINE
  5
172
330
1F
100
AcDbEntity
  8
0
  6
Continuous
 62
     7
100
AcDbLine
 10
121.2090871547
 20
-44.9881141046
 30
0.0
 11
124.659664735
 21
-44.9881141046
 31
0.0
  0
LINE
  5
173
330
1F
100
AcDbEntity
  8
0
  6
Continuous
 62
     7
100
AcDbLine
 10
124.659664735
 20
-44.9881141046
 30
0.0
 11
124.659664735
 21
-42.5396196513
 31
0.0
  0
LINE
  5
174
330
1F
100
AcDbEntity
  8
0
  6
Continuous
 62
     7
100
AcDbLine
 10
124.659664735
 20
-42.5396196513
 30
0.0
 11
123.7148637308
 21
-42.5396196513
 31
0.0
  0
LINE
  5
175
330
1F
100
AcDbEntity
  8
0
  6
Continuous
 62
     7
100
AcDbLine
 10
123.7148637308
 20
-42.5396196513
 30
0.0
 11
121.2090871547
 21
-42.5396196513
 31
0.0
  0
LINE
  5
176
330
1F
100
AcDbEntity
  8
0
  6
Continuous
 62
     7
100
AcDbLine
 10
121.2090871547
 20
-42.5396196513
 30
0.0
 11
121.2090871547
 21
-38.7123642331
 31
0.0
  0
LINE
  5
177
330
1F
100
AcDbEntity
  8
0
  6
Continuous
 62
     7
100
AcDbLine
 10
121.2090871547
 20
-38.7123642331
 30
0.0
 11
124.659664735
 21
-38.7123642331
 31
0.0
  0
LINE
  5
178
330
1F
100
AcDbEntity
  8
0
  6
Continuous
 62
     7
100
AcDbLine
 10
124.659664735
 20
-38.7123642331
 30
0.0
 11
124.659664735
 21
-36.263866878
 31
0.0
  0
LINE
  5
179
330
1F
100
AcDbEntity
  8
0
  6
Continuous
 62
     7
100
AcDbLine
 10
124.659664735
 20
-36.263866878
 30
0.0
 11
123.7148637308
 21
-36.263866878
 31
0.0
  0
LINE
  5
17A
330
1F
100
AcDbEntity
  8
0
  6
Continuous
 62
     7
100
AcDbLine
 10
123.7148637308
 20
-36.263866878
 30
0.0
 11
121.2090871547
 21
-36.263866878
 31
0.0
  0
LINE
  5
17B
330
1F
100
AcDbEntity
  8
0
  6
Continuous
 62
     7
100
AcDbLine
 10
121.2090871547
 20
-36.263866878
 30
0.0
 11
121.2090871547
 21
-32.4366143615
 31
0.0
  0
LINE
  5
17C
330
1F
100
AcDbEntity
  8
0
  6
Continuous
 62
     7
100
AcDbLine
 10
121.2090871547
 20
-32.4366143615
 30
0.0
 11
124.659664735
 21
-32.4366143615
 31
0.0
  0
LINE
  5
17D
330
1F
100
AcDbEntity
  8
0
  6
Continuous
 62
     7
100
AcDbLine
 10
124.659664735
 20
-32.4366143615
 30
0.0
 11
124.659664735
 21
-29.9881170064
 31
0.0
  0
LINE
  5
17E
330
1F
100
AcDbEntity
  8
0
  6
Continuous
 62
     7
100
AcDbLine
 10
124.659664735
 20
-29.9881170064
 30
0.0
 11
123.7148637308
 21
-29.9881170064
 31
0.0
  0
LINE
  5
17F
330
1F
100
AcDbEntity
  8
0
  6
Continuous
 62
     7
100
AcDbLine
 10
123.7148637308
 20
-29.9881170064
 30
0.0
 11
121.2090871547
 21
-29.9881170064
 31
0.0
  0
LINE
  5
180
330
1F
100
AcDbEntity
  8
0
  6
Continuous
 62
     7
100
AcDbLine
 10
118.7605927015
 20
-32.4395800317
 30
0.0
 11
118.7605927015
 21
-35.6364622282
 31
0.0
  0
LINE
  5
181
330
1F
100
AcDbEntity
  8
0
  6
Continuous
 62
     7
100
AcDbLine
 10
118.7605927015
 20
-35.6364622282
 30
0.0
 11
118.7605927015
 21
-42.5396196513
 31
0.0
  0
LINE
  5
182
330
1F
100
AcDbEntity
  8
0
  6
Continuous
 62
     7
100
AcDbLine
 10
109.4457186177
 20
-42.5396196513
 30
0.0
 11
108.5009176136
 21
-42.5396196513
 31
0.0
  0
LINE
  5
183
330
1F
100
AcDbEntity
  8
0
  6
Continuous
 62
     7
100
AcDbLine
 10
108.5009176136
 20
-42.5396196513
 30
0.0
 11
105.9951410375
 21
-42.5396196513
 31
0.0
  0
LINE
  5
184
330
1F
100
AcDbEntity
  8
0
  6
Continuous
 62
     7
100
AcDbLine
 10
105.9951410375
 20
-42.5396196513
 30
0.0
 11
105.9951410375
 21
-29.9881170064
 31
0.0
  0
LINE
  5
185
330
1F
100
AcDbEntity
  8
0
  6
Continuous
 62
     7
100
AcDbLine
 10
105.9951410375
 20
-29.9881170064
 30
0.0
 11
103.5466465842
 21
-29.9881170064
 31
0.0
  0
LINE
  5
186
330
1F
100
AcDbEntity
  8
0
  6
Continuous
 62
     7
100
AcDbLine
 10
103.5466465842
 20
-29.9881170064
 30
0.0
 11
103.5466465842
 21
-44.9881141046
 31
0.0
  0
LINE
  5
187
330
1F
100
AcDbEntity
  8
0
  6
Continuous
 62
     7
100
AcDbLine
 10
96.6765990406
 20
-32.4366143615
 30
0.0
 11
96.6765990406
 21
-42.5396196513
 31
0.0
  0
LINE
  5
188
330
1F
100
AcDbEntity
  8
0
  6
Continuous
 62
     7
100
AcDbLine
 10
99.1726341737
 20
-32.4366143615
 30
0.0
 11
96.6765990406
 21
-32.4366143615
 31
0.0
  0
LINE
  5
189
330
1F
100
AcDbEntity
  8
0
  6
Continuous
 62
     7
100
AcDbLine
 10
99.1726341737
 20
-42.5396196513
 30
0.0
 11
99.1726341737
 21
-32.4366143615
 31
0.0
  0
LINE
  5
18A
330
1F
100
AcDbEntity
  8
0
  6
Continuous
 62
     7
100
AcDbLine
 10
96.6765990406
 20
-42.5396196513
 30
0.0
 11
99.1726341737
 21
-42.5396196513
 31
0.0
  0
LINE
  5
18B
330
1F
100
AcDbEntity
  8
0
  6
Continuous
 62
     7
100
AcDbLine
 10
55.2185958711
 20
-42.5396196513
 30
0.0
 11
55.2185958711
 21
-40.6388049723
 31
0.0
  0
LINE
  5
18C
330
1F
100
AcDbEntity
  8
0
  6
Continuous
 62
     7
100
AcDbLine
 10
55.2185958711
 20
-40.6388049723
 30
0.0
 11
52.770098516
 21
-40.6388049723
 31
0.0
  0
LINE
  5
18D
330
1F
100
AcDbEntity
  8
0
  6
Continuous
 62
     7
100
AcDbLine
 10
52.770098516
 20
-40.6388049723
 30
0.0
 11
52.770098516
 21
-42.5396196513
 31
0.0
  0
LINE
  5
18E
330
1F
100
AcDbEntity
  8
0
  6
Continuous
 62
     7
100
AcDbLine
 10
52.770098516
 20
-42.5396196513
 30
0.0
 11
50.2740633829
 21
-42.5396196513
 31
0.0
  0
LINE
  5
18F
330
1F
100
AcDbEntity
  8
0
  6
Continuous
 62
     7
100
AcDbLine
 10
50.2740633829
 20
-42.5396196513
 30
0.0
 11
50.2740633829
 21
-32.4366143615
 31
0.0
  0
LINE
  5
190
330
1F
100
AcDbEntity
  8
0
  6
Continuous
 62
     7
100
AcDbLine
 10
50.2740633829
 20
-32.4366143615
 30
0.0
 11
52.770098516
 21
-32.4366143615
 31
0.0
  0
LINE
  5
191
330
1F
100
AcDbEntity
  8
0
  6
Continuous
 62
     7
100
AcDbLine
 10
52.770098516
 20
-32.4366143615
 30
0.0
 11
52.770098516
 21
-34.3371910905
 31
0.0
  0
LINE
  5
192
330
1F
100
AcDbEntity
  8
0
  6
Continuous
 62
     7
100
AcDbLine
 10
52.770098516
 20
-34.3371910905
 30
0.0
 11
55.2185958711
 21
-34.3371910905
 31
0.0
  0
LINE
  5
193
330
1F
100
AcDbEntity
  8
0
  6
Continuous
 62
     7
100
AcDbLine
 10
55.2185958711
 20
-34.3371910905
 30
0.0
 11
55.2185958711
 21
-32.4366143615
 31
0.0
  0
LINE
  5
194
330
1F
100
AcDbEntity
  8
0
  6
Continuous
 62
     7
100
AcDbLine
 10
52.767129944
 20
-29.9910855784
 30
0.0
 11
50.2740633829
 21
-29.9881170064
 31
0.0
  0
LINE
  5
195
330
1F
100
AcDbEntity
  8
0
  6
Continuous
 62
     7
100
AcDbLine
 10
47.8255689297
 20
-32.4395800317
 30
0.0
 11
47.8255689297
 21
-42.5396196513
 31
0.0
  0
LINE
  5
196
330
1F
100
AcDbEntity
  8
0
  6
Continuous
 62
     7
100
AcDbLine
 10
50.2740633829
 20
-44.9881141046
 30
0.0
 11
52.770098516
 21
-44.9881141046
 31
0.0
  0
LINE
  5
197
330
1F
100
AcDbEntity
  8
0
  6
Continuous
 62
     7
100
AcDbLine
 10
96.6765990406
 20
-44.9881141046
 30
0.0
 11
99.1726341737
 21
-44.9881141046
 31
0.0
  0
LINE
  5
198
330
1F
100
AcDbEntity
  8
0
  6
Continuous
 62
     7
100
AcDbLine
 10
94.2281045874
 20
-32.4395800317
 30
0.0
 11
94.2281045874
 21
-42.5396196513
 31
0.0
  0
LINE
  5
199
330
1F
100
AcDbEntity
  8
0
  6
Continuous
 62
     7
100
AcDbLine
 10
99.1696656016
 20
-29.9910855784
 30
0.0
 11
96.6765990406
 21
-29.9881170064
 31
0.0
  0
LINE
  5
19A
330
1F
100
AcDbEntity
  8
0
  6
Continuous
 62
     7
100
AcDbLine
 10
101.6211315287
 20
-42.5396196513
 30
0.0
 11
101.6211315287
 21
-32.4366143615
 31
0.0
  0
LINE
  5
19B
330
1F
100
AcDbEntity
  8
0
  6
Continuous
 62
     7
100
AcDbLine
 10
89.8511236048
 20
-39.3304278922
 30
0.0
 11
89.8540921768
 21
-44.9881170064
 31
0.0
  0
LINE
  5
19C
330
1F
100
AcDbEntity
  8
0
  6
Continuous
 62
     7
100
AcDbLine
 10
89.8540921768
 20
-44.9881170064
 30
0.0
 11
92.3025895319
 21
-44.9881170064
 31
0.0
  0
LINE
  5
19D
330
1F
100
AcDbEntity
  8
0
  6
Continuous
 62
     7
100
AcDbLine
 10
92.3025895319
 20
-44.9881170064
 30
0.0
 11
92.3025895319
 21
-39.329476092
 31
0.0
  0
LINE
  5
19E
330
1F
100
AcDbEntity
  8
0
  6
Continuous
 62
     7
100
AcDbLine
 10
91.4646339059
 20
-37.479199683
 30
0.0
 11
91.4665229972
 21
-37.4781579261
 31
0.0
  0
LINE
  5
19F
330
1F
100
AcDbEntity
  8
0
  6
Continuous
 62
     7
100
AcDbLine
 10
92.3025895319
 20
-35.6368858954
 30
0.0
 11
92.3025895319
 21
-32.4366143615
 31
0.0
  0
LINE
  5
1A0
330
1F
100
AcDbEntity
  8
0
  6
Continuous
 62
     7
100
AcDbLine
 10
89.8511236048
 20
-29.9910855784
 30
0.0
 11
84.9095625905
 21
-29.9881170064
 31
0.0
  0
LINE
  5
1A1
330
1F
100
AcDbEntity
  8
0
  6
Continuous
 62
     7
100
AcDbLine
 10
84.9095625905
 20
-29.9881170064
 30
0.0
 11
84.9095625905
 21
-44.9881170064
 31
0.0
  0
LINE
  5
1A2
330
1F
100
AcDbEntity
  8
0
  6
Continuous
 62
     7
100
AcDbLine
 10
84.9095625905
 20
-44.9881170064
 30
0.0
 11
87.3580570438
 21
-44.9881170064
 31
0.0
  0
LINE
  5
1A3
330
1F
100
AcDbEntity
  8
0
  6
Continuous
 62
     7
100
AcDbLine
 10
87.3580570438
 20
-44.9881170064
 30
0.0
 11
87.3580570438
 21
-38.7123642331
 31
0.0
  0
LINE
  5
1A4
330
1F
100
AcDbEntity
  8
0
  6
Continuous
 62
     7
100
AcDbLine
 10
87.3580570438
 20
-38.7123642331
 30
0.0
 11
89.2401839381
 21
-38.7123642331
 31
0.0
  0
LINE
  5
1A5
330
1F
100
AcDbEntity
  8
0
  6
Continuous
 62
     7
100
AcDbLine
 10
71.4042139376
 20
-29.9910855784
 30
0.0
 11
70.1590793391
 21
-29.9881170064
 31
0.0
  0
LINE
  5
1A6
330
1F
100
AcDbEntity
  8
0
  6
Continuous
 62
     7
100
AcDbLine
 10
68.9111473766
 20
-30.3120047544
 30
0.0
 11
68.9111473766
 21
-29.9881170064
 31
0.0
  0
LINE
  5
1A7
330
1F
100
AcDbEntity
  8
0
  6
Continuous
 62
     7
100
AcDbLine
 10
68.9111473766
 20
-29.9881170064
 30
0.0
 11
66.4626529234
 21
-29.9881170064
 31
0.0
  0
LINE
  5
1A8
330
1F
100
AcDbEntity
  8
0
  6
Continuous
 62
     7
100
AcDbLine
 10
66.4626529234
 20
-29.9881170064
 30
0.0
 11
66.4626529234
 21
-44.9881170064
 31
0.0
  0
LINE
  5
1A9
330
1F
100
AcDbEntity
  8
0
  6
Continuous
 62
     7
100
AcDbLine
 10
66.4626529234
 20
-44.9881170064
 30
0.0
 11
68.9111473766
 21
-44.9881170064
 31
0.0
  0
LINE
  5
1AA
330
1F
100
AcDbEntity
  8
0
  6
Continuous
 62
     7
100
AcDbLine
 10
68.9111473766
 20
-44.9881170064
 30
0.0
 11
68.9111473766
 21
-32.4366143615
 31
0.0
  0
LINE
  5
1AB
330
1F
100
AcDbEntity
  8
0
  6
Continuous
 62
     7
100
AcDbLine
 10
68.9111473766
 20
-32.4366143615
 30
0.0
 11
71.4071825096
 21
-32.4366143615
 31
0.0
  0
LINE
  5
1AC
330
1F
100
AcDbEntity
  8
0
  6
Continuous
 62
     7
100
AcDbLine
 10
71.4071825096
 20
-32.4366143615
 30
0.0
 11
71.4071825096
 21
-44.9881170064
 31
0.0
  0
LINE
  5
1AD
330
1F
100
AcDbEntity
  8
0
  6
Continuous
 62
     7
100
AcDbLine
 10
71.4071825096
 20
-44.9881170064
 30
0.0
 11
73.8556798647
 21
-44.9881170064
 31
0.0
  0
LINE
  5
1AE
330
1F
100
AcDbEntity
  8
0
  6
Continuous
 62
     7
100
AcDbLine
 10
73.8556798647
 20
-44.9881170064
 30
0.0
 11
73.8556798647
 21
-32.4366143615
 31
0.0
  0
LINE
  5
1AF
330
1F
100
AcDbEntity
  8
0
  6
Continuous
 62
     7
100
AcDbLine
 10
75.7476816863
 20
-29.9881170064
 30
0.0
 11
75.7476816863
 21
-32.4366143615
 31
0.0
  0
LINE
  5
1B0
330
1F
100
AcDbEntity
  8
0
  6
Continuous
 62
     7
100
AcDbLine
 10
75.7476816863
 20
-32.4366143615
 30
0.0
 11
78.2534582624
 21
-32.4366143615
 31
0.0
  0
LINE
  5
1B1
330
1F
100
AcDbEntity
  8
0
  6
Continuous
 62
     7
100
AcDbLine
 10
78.2534582624
 20
-32.4366143615
 30
0.0
 11
78.2534582624
 21
-44.9881170064
 31
0.0
  0
LINE
  5
1B2
330
1F
100
AcDbEntity
  8
0
  6
Continuous
 62
     7
100
AcDbLine
 10
78.2534582624
 20
-44.9881170064
 30
0.0
 11
80.7019556175
 21
-44.9881170064
 31
0.0
  0
LINE
  5
1B3
330
1F
100
AcDbEntity
  8
0
  6
Continuous
 62
     7
100
AcDbLine
 10
80.7019556175
 20
-44.9881170064
 30
0.0
 11
80.7019556175
 21
-32.4366143615
 31
0.0
  0
LINE
  5
1B4
330
1F
100
AcDbEntity
  8
0
  6
Continuous
 62
     7
100
AcDbLine
 10
80.7019556175
 20
-32.4366143615
 30
0.0
 11
83.2282713459
 21
-32.4366143615
 31
0.0
  0
LINE
  5
1B5
330
1F
100
AcDbEntity
  8
0
  6
Continuous
 62
     7
100
AcDbLine
 10
83.2282713459
 20
-32.4366143615
 30
0.0
 11
83.2282713459
 21
-29.9881170064
 31
0.0
  0
LINE
  5
1B6
330
1F
100
AcDbEntity
  8
0
  6
Continuous
 62
     7
100
AcDbLine
 10
83.2282713459
 20
-29.9881170064
 30
0.0
 11
75.7476816863
 21
-29.9881170064
 31
0.0
  0
LINE
  5
1B7
330
1F
100
AcDbEntity
  8
0
  6
Continuous
 62
     7
100
AcDbLine
 10
89.8540921768
 20
-36.263866878
 30
0.0
 11
89.8540921768
 21
-32.4366143615
 31
0.0
  0
LINE
  5
1B8
330
1F
100
AcDbEntity
  8
0
  6
Continuous
 62
     7
100
AcDbLine
 10
89.8540921768
 20
-32.4366143615
 30
0.0
 11
87.3580570438
 21
-32.4366143615
 31
0.0
  0
LINE
  5
1B9
330
1F
100
AcDbEntity
  8
0
  6
Continuous
 62
     7
100
AcDbLine
 10
87.3580570438
 20
-32.4366143615
 30
0.0
 11
87.3580570438
 21
-36.263866878
 31
0.0
  0
LINE
  5
1BA
330
1F
100
AcDbEntity
  8
0
  6
Continuous
 62
     7
100
AcDbLine
 10
87.3580570438
 20
-36.263866878
 30
0.0
 11
89.8540921768
 21
-36.263866878
 31
0.0
  0
LINE
  5
1BB
330
1F
100
AcDbEntity
  8
0
  6
Continuous
 62
     7
100
AcDbLine
 10
95.6742218615
 20
-12.9400513413
 30
0.0
 11
95.6742218615
 21
12.9400513413
 31
0.0
  0
LINE
  5
1BC
330
1F
100
AcDbEntity
  8
0
  6
Continuous
 62
     7
100
AcDbLine
 10
85.5031130731
 20
0.0
 30
0.0
 11
94.7646458394
 21
-13.2268395595
 31
0.0
  0
LINE
  5
1BD
330
1F
100
AcDbEntity
  8
0
  6
Continuous
 62
     7
100
AcDbLine
 10
94.7646458394
 20
13.2268395595
 30
0.0
 11
85.5031130731
 21
0.0
 31
0.0
  0
LINE
  5
1BE
330
1F
100
AcDbEntity
  8
0
  6
Continuous
 62
     7
100
AcDbLine
 10
125.6742218615
 20
-10.0
 30
0.0
 11
125.6742218615
 21
5.1
 31
0.0
  0
LINE
  5
1BF
330
1F
100
AcDbEntity
  8
0
  6
Continuous
 62
     7
100
AcDbLine
 10
115.7742218615
 20
15.0
 30
0.0
 11
115.5742218615
 21
15.0
 31
0.0
  0
LINE
  5
1C0
330
1F
100
AcDbEntity
  8
0
  6
Continuous
 62
     7
100
AcDbLine
 10
105.6742218615
 20
5.1
 30
0.0
 11
105.6742218615
 21
-10.0
 31
0.0
  0
LINE
  5
1C1
330
1F
100
AcDbEntity
  8
0
  6
Continuous
 62
     7
100
AcDbLine
 10
110.6742218615
 20
-15.0
 30
0.0
 11
120.6742218615
 21
-15.0
 31
0.0
  0
LINE
  5
1C2
330
1F
100
AcDbEntity
  8
0
  6
Continuous
 62
     7
100
AcDbLine
 10
9.9
 20
-15.0
 30
0.0
 11
10.1
 21
-15.0
 31
0.0
  0
LINE
  5
1C3
330
1F
100
AcDbEntity
  8
0
  6
Continuous
 62
     7
100
AcDbLine
 10
0.0
 20
10.0
 30
0.0
 11
0.0
 21
-5.1
 31
0.0
  0
LINE
  5
1C4
330
1F
100
AcDbEntity
  8
0
  6
Continuous
 62
     7
100
AcDbLine
 10
15.0
 20
15.0
 30
0.0
 11
5.0
 21
15.0
 31
0.0
  0
LINE
  5
1C5
330
1F
100
AcDbEntity
  8
0
  6
Continuous
 62
     7
100
AcDbLine
 10
60.0
 20
5.0
 30
0.0
 11
52.0
 21
5.0
 31
0.0
  0
LINE
  5
1C6
330
1F
100
AcDbEntity
  8
0
  6
Continuous
 62
     7
100
AcDbLine
 10
65.0
 20
15.0
 30
0.0
 11
65.0
 21
10.0
 31
0.0
  0
LINE
  5
1C7
330
1F
100
AcDbEntity
  8
0
  6
Continuous
 62
     7
100
AcDbLine
 10
75.5031130731
 20
0.0
 30
0.0
 11
65.0
 21
15.0
 31
0.0
  0
LINE
  5
1C8
330
1F
100
AcDbEntity
  8
0
  6
Continuous
 62
     7
100
AcDbLine
 10
65.0
 20
-15.0
 30
0.0
 11
75.5031130731
 21
0.0
 31
0.0
  0
LINE
  5
1C9
330
1F
100
AcDbEntity
  8
0
  6
Continuous
 62
     7
100
AcDbLine
 10
65.0
 20
-10.0
 30
0.0
 11
65.0
 21
-15.0
 31
0.0
  0
LINE
  5
1CA
330
1F
100
AcDbEntity
  8
0
  6
Continuous
 62
     7
100
AcDbLine
 10
52.0
 20
-5.0
 30
0.0
 11
60.0
 21
-5.0
 31
0.0
  0
LINE
  5
1CB
330
1F
100
AcDbEntity
  8
0
  6
Continuous
 62
     7
100
AcDbLine
 10
50.0
 20
-10.0
 30
0.0
 11
50.0
 21
-7.0
 31
0.0
  0
LINE
  5
1CC
330
1F
100
AcDbEntity
  8
0
  6
Continuous
 62
     7
100
AcDbLine
 10
35.0
 20
-15.0
 30
0.0
 11
45.0
 21
-15.0
 31
0.0
  0
LINE
  5
1CD
330
1F
100
AcDbEntity
  8
0
  6
Continuous
 62
     7
100
AcDbLine
 10
30.0
 20
10.0
 30
0.0
 11
30.0
 21
-10.0
 31
0.0
  0
LINE
  5
1CE
330
1F
100
AcDbEntity
  8
0
  6
Continuous
 62
     7
100
AcDbLine
 10
45.0
 20
15.0
 30
0.0
 11
35.0
 21
15.0
 31
0.0
  0
LINE
  5
1CF
330
1F
100
AcDbEntity
  8
0
  6
Continuous
 62
     7
100
AcDbLine
 10
50.0
 20
7.0
 30
0.0
 11
50.0
 21
10.0
 31
0.0
  0
LINE
  5
1D0
330
1F
100
AcDbEntity
  8
0
  6
Continuous
 62
     7
100
AcDbLine
 10
20.0
 20
-5.1
 30
0.0
 11
20.0
 21
10.0
 31
0.0
  0
LINE
  5
1D1
330
1F
100
AcDbEntity
  8
0
  6
Continuous
 62
     7
100
AcDbLine
 10
0.0
 20
-25.0
 30
0.0
 11
20.0
 21
-25.0
 31
0.0
  0
LINE
  5
1D2
330
1F
100
AcDbEntity
  8
0
  6
Continuous
 62
     7
100
AcDbLine
 10
-10.0
 20
15.0
 30
0.0
 11
-10.0
 21
-15.0
 31
0.0
  0
LINE
  5
1D3
330
1F
100
AcDbEntity
  8
0
  6
Continuous
 62
     7
100
AcDbLine
 10
20.0
 20
25.0
 30
0.0
 11
0.0
 21
25.0
 31
0.0
  0
LINE
  5
1D4
330
1F
100
AcDbEntity
  8
0
  6
Continuous
 62
     7
100
AcDbLine
 10
55.0
 20
25.0
 30
0.0
 11
30.0
 21
25.0
 31
0.0
  0
LINE
  5
1D5
330
1F
100
AcDbEntity
  8
0
  6
Continuous
 62
     7
100
AcDbLine
 10
60.0
 20
20.1
 30
0.0
 11
60.0
 21
20.0
 31
0.0
  0
LINE
  5
1D6
330
1F
100
AcDbEntity
  8
0
  6
Continuous
 62
     7
100
AcDbLine
 10
74.7296103812
 20
25.0
 30
0.0
 11
64.9
 21
25.0
 31
0.0
  0
LINE
  5
1D7
330
1F
100
AcDbEntity
  8
0
  6
Continuous
 62
     7
100
AcDbLine
 10
80.5031130731
 20
15.0
 30
0.0
 11
74.7296103812
 21
25.0
 31
0.0
  0
LINE
  5
1D8
330
1F
100
AcDbEntity
  8
0
  6
Continuous
 62
     7
100
AcDbLine
 10
86.276615765
 20
25.0
 30
0.0
 11
80.5031130731
 21
15.0
 31
0.0
  0
LINE
  5
1D9
330
1F
100
AcDbEntity
  8
0
  6
Continuous
 62
     7
100
AcDbLine
 10
98.3
 20
25.0
 30
0.0
 11
86.276615765
 21
25.0
 31
0.0
  0
LINE
  5
1DA
330
1F
100
AcDbEntity
  8
0
  6
Continuous
 62
     7
100
AcDbLine
 10
100.0
 20
23.2342702328
 30
0.0
 11
100.0
 21
23.3
 31
0.0
  0
LINE
  5
1DB
330
1F
100
AcDbEntity
  8
0
  6
Continuous
 62
     7
100
AcDbLine
 10
125.6742218615
 20
25.0
 30
0.0
 11
105.6742218615
 21
25.0
 31
0.0
  0
LINE
  5
1DC
330
1F
100
AcDbEntity
  8
0
  6
Continuous
 62
     7
100
AcDbLine
 10
135.6742218615
 20
-15.0
 30
0.0
 11
135.6742218615
 21
15.0
 31
0.0
  0
LINE
  5
1DD
330
1F
100
AcDbEntity
  8
0
  6
Continuous
 62
     7
100
AcDbLine
 10
105.6742218615
 20
-25.0
 30
0.0
 11
125.6742218615
 21
-25.0
 31
0.0
  0
LINE
  5
1DE
330
1F
100
AcDbEntity
  8
0
  6
Continuous
 62
     7
100
AcDbLine
 10
100.0
 20
-23.3
 30
0.0
 11
100.0
 21
-23.2342702328
 31
0.0
  0
LINE
  5
1DF
330
1F
100
AcDbEntity
  8
0
  6
Continuous
 62
     7
100
AcDbLine
 10
86.276615765
 20
-25.0
 30
0.0
 11
98.3
 21
-25.0
 31
0.0
  0
LINE
  5
1E0
330
1F
100
AcDbEntity
  8
0
  6
Continuous
 62
     7
100
AcDbLine
 10
80.5031130731
 20
-15.0
 30
0.0
 11
86.276615765
 21
-25.0
 31
0.0
  0
LINE
  5
1E1
330
1F
100
AcDbEntity
  8
0
  6
Continuous
 62
     7
100
AcDbLine
 10
74.7296103812
 20
-25.0
 30
0.0
 11
80.5031130731
 21
-15.0
 31
0.0
  0
LINE
  5
1E2
330
1F
100
AcDbEntity
  8
0
  6
Continuous
 62
     7
100
AcDbLine
 10
64.9
 20
-25.0
 30
0.0
 11
74.7296103812
 21
-25.0
 31
0.0
  0
LINE
  5
1E3
330
1F
100
AcDbEntity
  8
0
  6
Continuous
 62
     7
100
AcDbLine
 10
60.0
 20
-20.0
 30
0.0
 11
60.0
 21
-20.1
 31
0.0
  0
LINE
  5
1E4
330
1F
100
AcDbEntity
  8
0
  6
Continuous
 62
     7
100
AcDbLine
 10
30.0
 20
-25.0
 30
0.0
 11
55.0
 21
-25.0
 31
0.0
  0
SPLINE
  5
1E5
330
1F
100
AcDbEntity
  8
0
  6
Continuous
 62
     7
100
AcDbSpline
210
0.0
220
0.0
230
1.0
 70
     8
 71
     3
 72
     9
 73
     5
 74
     0
 42
0.00000001
 43
0.00000001
 40
0.0
 40
0.0
 40
0.0
 40
0.0
 40
0.5587422454231089
 40
1.0
 40
1.0
 40
1.0
 40
1.0
 10
132.9244375228882
 20
-37.47815792609699
 30
0.0
 10
133.597983046294
 20
-36.53657482354544
 30
0.0
 10
133.7605927014802
 20
-35.63688589540414
 30
0.0
 10
133.733549791616
 20
-35.94826143171596
 30
0.0
 10
133.7605927014802
 20
-35.63688589540414
 30
0.0
  0
SPLINE
  5
1E6
330
1F
100
AcDbEntity
  8
0
  6
Continuous
 62
     7
100
AcDbSpline
210
0.0
220
0.0
230
1.0
 70
     8
 71
     3
 72
     9
 73
     5
 74
     0
 42
0.00000001
 43
0.00000001
 40
0.0
 40
0.0
 40
0.0
 40
0.0
 40
0.5569262855201994
 40
1.0
 40
1.0
 40
1.0
 40
1.0
 10
133.7605714797974
 20
-32.43661436150458
 30
0.0
 10
132.8725615692474
 20
-30.54862859167625
 30
0.0
 10
131.3091267743804
 20
-29.99108557844693
 30
0.0
 10
131.8935545185029
 20
-30.10718743706367
 30
0.0
 10
131.3091267743804
 20
-29.99108557844693
 30
0.0
  0
SPLINE
  5
1E7
330
1F
100
AcDbEntity
  8
0
  6
Continuous
 62
     7
100
AcDbSpline
210
0.0
220
0.0
230
1.0
 70
     8
 71
     3
 72
     9
 73
     5
 74
     0
 42
0.00000001
 43
0.00000001
 40
0.0
 40
0.0
 40
0.0
 40
0.0
 40
0.5569704318307159
 40
1.0
 40
1.0
 40
1.0
 40
1.0
 10
130.6980848312378
 20
-38.71236423305024
 30
0.0
 10
131.1729761437517
 20
-38.93579309475764
 30
0.0
 10
131.3091267743804
 20
-39.33042789223457
 30
0.0
 10
131.2815818867884
 20
-39.18286645521449
 30
0.0
 10
131.3091267743804
 20
-39.33042789223457
 30
0.0
  0
SPLINE
  5
1E8
330
1F
100
AcDbEntity
  8
0
  6
Continuous
 62
     7
100
AcDbSpline
210
0.0
220
0.0
230
1.0
 70
     8
 71
     3
 72
     9
 73
     5
 74
     0
 42
0.00000001
 43
0.00000001
 40
0.0
 40
0.0
 40
0.0
 40
0.0
 40
0.5592565542584086
 40
1.0
 40
1.0
 40
1.0
 40
1.0
 10
133.7605714797974
 20
-39.32947609201666
 30
0.0
 10
133.4930160373702
 20
-38.19715178545418
 30
0.0
 10
132.9226370754897
 20
-37.47919968304281
 30
0.0
 10
133.1391728680127
 20
-37.70570469509608
 30
0.0
 10
132.9226370754897
 20
-37.47919968304281
 30
0.0
  0
SPLINE
  5
1E9
330
1F
100
AcDbEntity
  8
0
  6
Continuous
 62
     7
100
AcDbSpline
210
0.0
220
0.0
230
1.0
 70
     8
 71
     3
 72
     9
 73
     5
 74
     0
 42
0.00000001
 43
0.00000001
 40
0.0
 40
0.0
 40
0.0
 40
0.0
 40
0.5569428030635611
 40
1.0
 40
1.0
 40
1.0
 40
1.0
 10
121.2090849876404
 20
-29.98811700642583
 30
0.0
 10
119.3159290087552
 20
-30.87274002704767
 30
0.0
 10
118.7605927014802
 20
-32.43958003169575
 30
0.0
 10
118.8755023514234
 20
-31.85356567761244
 30
0.0
 10
118.7605927014802
 20
-32.43958003169575
 30
0.0
  0
SPLINE
  5
1EA
330
1F
100
AcDbEntity
  8
0
  6
Continuous
 62
     7
100
AcDbSpline
210
0.0
220
0.0
230
1.0
 70
     8
 71
     3
 72
     9
 73
     5
 74
     0
 42
0.00000001
 43
0.00000001
 40
0.0
 40
0.0
 40
0.0
 40
0.0
 40
0.5568156685235092
 40
0.9999999999999999
 40
0.9999999999999999
 40
0.9999999999999999
 40
0.9999999999999999
 10
118.7605857849121
 20
-42.53961965134709
 30
0.0
 10
119.6423114691738
 20
-44.43283091982182
 30
0.0
 10
121.2090871547291
 20
-44.98811410459589
 30
0.0
 10
120.6229371548488
 20
-44.87330680821342
 30
0.0
 10
121.2090871547291
 20
-44.9881141045959
 30
0.0
  0
SPLINE
  5
1EB
330
1F
100
AcDbEntity
  8
0
  6
Continuous
 62
     7
100
AcDbSpline
210
0.0
220
0.0
230
1.0
 70
     8
 71
     3
 72
     9
 73
     5
 74
     0
 42
0.00000001
 43
0.00000001
 40
0.0
 40
0.0
 40
0.0
 40
0.0
 40
0.556885137294605
 40
1.0
 40
1.0
 40
1.0
 40
1.0
 10
101.6210913658142
 20
-32.43661436150458
 30
0.0
 10
100.7356874659741
 20
-30.54574588341196
 30
0.0
 10
99.16966560163868
 20
-29.99108557844693
 30
0.0
 10
99.75529708094746
 20
-30.10581926154608
 30
0.0
 10
99.16966560163868
 20
-29.99108557844693
 30
0.0
  0
SPLINE
  5
1EC
330
1F
100
AcDbEntity
  8
0
  6
Continuous
 62
     7
100
AcDbSpline
210
0.0
220
0.0
230
1.0
 70
     8
 71
     3
 72
     9
 73
     5
 74
     0
 42
0.00000001
 43
0.00000001
 40
0.0
 40
0.0
 40
0.0
 40
0.0
 40
0.5569418600024264
 40
1.0
 40
1.0
 40
1.0
 40
1.0
 10
96.67658805847168
 20
-29.98811700642583
 30
0.0
 10
94.78344089465054
 20
-30.87274002704768
 30
0.0
 10
94.22810458737563
 20
-32.43958003169575
 30
0.0
 10
94.34301418069325
 20
-31.85356574055546
 30
0.0
 10
94.22810458737563
 20
-32.43958003169575
 30
0.0
  0
SPLINE
  5
1ED
330
1F
100
AcDbEntity
  8
0
  6
Continuous
 62
     7
100
AcDbSpline
210
0.0
220
0.0
230
1.0
 70
     8
 71
     3
 72
     9
 73
     5
 74
     0
 42
0.00000001
 43
0.00000001
 40
0.0
 40
0.0
 40
0.0
 40
0.0
 40
0.5568161082690692
 40
1.0
 40
1.0
 40
1.0
 40
1.0
 10
94.22808885574341
 20
-42.53961965134709
 30
0.0
 10
95.10982335506922
 20
-44.43283091982181
 30
0.0
 10
96.67659904062444
 20
-44.98811410459589
 30
0.0
 10
96.09044953000635
 20
-44.87330654013182
 30
0.0
 10
96.67659904062444
 20
-44.98811410459589
 30
0.0
  0
SPLINE
  5
1EE
330
1F
100
AcDbEntity
  8
0
  6
Continuous
 62
     7
100
AcDbSpline
210
0.0
220
0.0
230
1.0
 70
     8
 71
     3
 72
     9
 73
     5
 74
     0
 42
0.00000001
 43
0.00000001
 40
0.0
 40
0.0
 40
0.0
 40
0.0
 40
0.5567769292636137
 40
1.0
 40
1.0
 40
1.0
 40
1.0
 10
99.17259216308594
 20
-44.98811410459589
 30
0.0
 10
101.0639661314761
 20
-44.10506838006615
 30
0.0
 10
101.6211315287385
 20
-42.53961965134709
 30
0.0
 10
101.5054733656103
 20
-43.12514913066587
 30
0.0
 10
101.6211315287385
 20
-42.53961965134709
 30
0.0
  0
SPLINE
  5
1EF
330
1F
100
AcDbEntity
  8
0
  6
Continuous
 62
     7
100
AcDbSpline
210
0.0
220
0.0
230
1.0
 70
     8
 71
     3
 72
     9
 73
     5
 74
     0
 42
0.00000001
 43
0.00000001
 40
0.0
 40
0.0
 40
0.0
 40
0.0
 40
0.5587357899773209
 40
1.0
 40
1.0
 40
1.0
 40
1.0
 10
91.46648645401001
 20
-37.47815792609699
 30
0.0
 10
92.13997987672192
 20
-36.53657482354544
 30
0.0
 10
92.30258953190813
 20
-35.63688589540414
 30
0.0
 10
92.27554501757974
 20
-35.94826016774753
 30
0.0
 10
92.30258953190813
 20
-35.63688589540414
 30
0.0
  0
SPLINE
  5
1F0
330
1F
100
AcDbEntity
  8
0
  6
Continuous
 62
     7
100
AcDbSpline
210
0.0
220
0.0
230
1.0
 70
     8
 71
     3
 72
     9
 73
     5
 74
     0
 42
0.00000001
 43
0.00000001
 40
0.0
 40
0.0
 40
0.0
 40
0.0
 40
0.5569259077858151
 40
1.0
 40
1.0
 40
1.0
 40
1.0
 10
92.30256080627441
 20
-32.43661436150458
 30
0.0
 10
91.41455839967533
 20
-30.54862859167624
 30
0.0
 10
89.85112360480827
 20
-29.99108557844693
 30
0.0
 10
90.43555176387378
 20
-30.10718720781195
 30
0.0
 10
89.85112360480827
 20
-29.99108557844693
 30
0.0
  0
SPLINE
  5
1F1
330
1F
100
AcDbEntity
  8
0
  6
Continuous
 62
     7
100
AcDbSpline
210
0.0
220
0.0
230
1.0
 70
     8
 71
     3
 72
     9
 73
     5
 74
     0
 42
0.00000001
 43
0.00000001
 40
0.0
 40
0.0
 40
0.0
 40
0.0
 40
0.5569482657202821
 40
1.0
 40
1.0
 40
1.0
 40
1.0
 10
89.24013376235962
 20
-38.71236423305024
 30
0.0
 10
89.71497297417963
 20
-38.93579309475766
 30
0.0
 10
89.85112360480828
 20
-39.33042789223457
 30
0.0
 10
89.8235790550438
 20
-39.18286683278198
 30
0.0
 10
89.85112360480828
 20
-39.33042789223457
 30
0.0
  0
SPLINE
  5
1F2
330
1F
100
AcDbEntity
  8
0
  6
Continuous
 62
     7
100
AcDbSpline
210
0.0
220
0.0
230
1.0
 70
     8
 71
     3
 72
     9
 73
     5
 74
     0
 42
0.00000001
 43
0.00000001
 40
0.0
 40
0.0
 40
0.0
 40
0.0
 40
0.5592561886983983
 40
1.0
 40
1.0
 40
1.0
 40
1.0
 10
92.30256080627441
 20
-39.32947609201666
 30
0.0
 10
92.03501286779809
 20
-38.19715178545417
 30
0.0
 10
91.46463390591764
 20
-37.47919968304281
 30
0.0
 10
91.6811701317844
 20
-37.70570458725221
 30
0.0
 10
91.46463390591764
 20
-37.47919968304281
 30
0.0
  0
SPLINE
  5
1F3
330
1F
100
AcDbEntity
  8
0
  6
Continuous
 62
     7
100
AcDbSpline
210
0.0
220
0.0
230
1.0
 70
     8
 71
     3
 72
     9
 73
     5
 74
     0
 42
0.00000001
 43
0.00000001
 40
0.0
 40
0.0
 40
0.0
 40
0.0
 40
0.5568850772638037
 40
1.0
 40
1.0
 40
1.0
 40
1.0
 10
73.85563850402832
 20
-32.43661436150458
 30
0.0
 10
72.97023580194875
 20
-30.54574588341196
 30
0.0
 10
71.40421393761335
 20
-29.99108557844693
 30
0.0
 10
71.98984548326997
 20
-30.10581922501067
 30
0.0
 10
71.40421393761335
 20
-29.99108557844693
 30
0.0
  0
SPLINE
  5
1F4
330
1F
100
AcDbEntity
  8
0
  6
Continuous
 62
     7
100
AcDbSpline
210
0.0
220
0.0
230
1.0
 70
     8
 71
     3
 72
     9
 73
     5
 74
     0
 42
0.00000001
 43
0.00000001
 40
0.0
 40
0.0
 40
0.0
 40
0.0
 40
0.5596459194088811
 40
1.0
 40
1.0
 40
1.0
 40
1.0
 10
70.15907764434814
 20
-29.98811700642583
 30
0.0
 10
69.438778142294
 20
-30.09005786257557
 30
0.0
 10
68.91114737659909
 20
-30.31200475435818
 30
0.0
 10
69.084152262513
 20
-30.22762016844429
 30
0.0
 10
68.91114737659909
 20
-30.31200475435818
 30
0.0
  0
SPLINE
  5
1F5
330
1F
100
AcDbEntity
  8
0
  6
Continuous
 62
     7
100
AcDbSpline
210
0.0
220
0.0
230
1.0
 70
     8
 71
     3
 72
     9
 73
     5
 74
     0
 42
0.00000001
 43
0.00000001
 40
0.0
 40
0.0
 40
0.0
 40
0.0
 40
0.5568856504936491
 40
1.0
 40
1.0
 40
1.0
 40
1.0
 10
64.53710794448853
 20
-32.43661436150458
 30
0.0
 10
63.65169380511833
 20
-30.54574588341196
 30
0.0
 10
62.08567194078294
 20
-29.99108557844693
 30
0.0
 10
62.67130285289286
 20
-30.10581957388419
 30
0.0
 10
62.08567194078294
 20
-29.99108557844693
 30
0.0
  0
SPLINE
  5
1F6
330
1F
100
AcDbEntity
  8
0
  6
Continuous
 62
     7
100
AcDbSpline
210
0.0
220
0.0
230
1.0
 70
     8
 71
     3
 72
     9
 73
     5
 74
     0
 42
0.00000001
 43
0.00000001
 40
0.0
 40
0.0
 40
0.0
 40
0.0
 40
0.5569429554567656
 40
0.9999999999999999
 40
0.9999999999999999
 40
0.9999999999999999
 40
0.9999999999999999
 10
59.592604637146
 20
-29.98811700642583
 30
0.0
 10
57.69944723379481
 20
-30.87274002704768
 30
0.0
 10
57.14411092651986
 20
-32.43958003169574
 30
0.0
 10
57.25902058561353
 20
-31.85356566744134
 30
0.0
 10
57.14411092651986
 20
-32.43958003169574
 30
0.0
  0
SPLINE
  5
1F7
330
1F
100
AcDbEntity
  8
0
  6
Continuous
 62
     7
100
AcDbSpline
210
0.0
220
0.0
230
1.0
 70
     8
 71
     3
 72
     9
 73
     5
 74
     0
 42
0.00000001
 43
0.00000001
 40
0.0
 40
0.0
 40
0.0
 40
0.0
 40
0.5568155974633013
 40
1.0
 40
1.0
 40
1.0
 40
1.0
 10
57.14410543441772
 20
-42.53961965134709
 30
0.0
 10
58.02582969421346
 20
-44.4328309198218
 30
0.0
 10
59.59260537976868
 20
-44.98811410459589
 30
0.0
 10
59.00645530082611
 20
-44.87330685153383
 30
0.0
 10
59.59260537976868
 20
-44.98811410459589
 30
0.0
  0
SPLINE
  5
1F8
330
1F
100
AcDbEntity
  8
0
  6
Continuous
 62
     7
100
AcDbSpline
210
0.0
220
0.0
230
1.0
 70
     8
 71
     3
 72
     9
 73
     5
 74
     0
 42
0.00000001
 43
0.00000001
 40
0.0
 40
0.0
 40
0.0
 40
0.0
 40
0.5567726397853039
 40
1.0
 40
1.0
 40
1.0
 40
1.0
 10
62.08863854408264
 20
-44.98811410459589
 30
0.0
 10
63.97997247062028
 20
-44.10506838006616
 30
0.0
 10
64.53713786788278
 20
-42.53961965134708
 30
0.0
 10
64.42147996140581
 20
-43.12514884465987
 30
0.0
 10
64.53713786788278
 20
-42.53961965134708
 30
0.0
  0
SPLINE
  5
1F9
330
1F
100
AcDbEntity
  8
0
  6
Continuous
 62
     7
100
AcDbSpline
210
0.0
220
0.0
230
1.0
 70
     8
 71
     3
 72
     9
 73
     5
 74
     0
 42
0.00000001
 43
0.00000001
 40
0.0
 40
0.0
 40
0.0
 40
0.0
 40
0.5569264232244658
 40
1.0
 40
1.0
 40
1.0
 40
1.0
 10
55.21857738494873
 20
-32.43661436150458
 30
0.0
 10
54.33056473881955
 20
-30.54862859167624
 30
0.0
 10
52.7671299439525
 20
-29.99108557844693
 30
0.0
 10
53.35155753680734
 20
-30.10718752063798
 30
0.0
 10
52.7671299439525
 20
-29.99108557844693
 30
0.0
  0
SPLINE
  5
1FA
330
1F
100
AcDbEntity
  8
0
  6
Continuous
 62
     7
100
AcDbSpline
210
0.0
220
0.0
230
1.0
 70
     8
 71
     3
 72
     9
 73
     5
 74
     0
 42
0.00000001
 43
0.00000001
 40
0.0
 40
0.0
 40
0.0
 40
0.0
 40
0.5569409907098146
 40
1.0
 40
1.0
 40
1.0
 40
1.0
 10
50.27404427528381
 20
-29.98811700642583
 30
0.0
 10
48.38090523696436
 20
-30.87274002704768
 30
0.0
 10
47.82556892968942
 20
-32.43958003169574
 30
0.0
 10
47.94047847081188
 20
-31.85356579857627
 30
0.0
 10
47.82556892968943
 20
-32.43958003169575
 30
0.0
  0
SPLINE
  5
1FB
330
1F
100
AcDbEntity
  8
0
  6
Continuous
 62
     7
100
AcDbSpline
210
0.0
220
0.0
230
1.0
 70
     8
 71
     3
 72
     9
 73
     5
 74
     0
 42
0.00000001
 43
0.00000001
 40
0.0
 40
0.0
 40
0.0
 40
0.0
 40
0.5568165136177575
 40
1.0
 40
1.0
 40
1.0
 40
1.0
 10
47.82554507255554
 20
-42.53961965134709
 30
0.0
 10
48.70728769738304
 20
-44.4328309198218
 30
0.0
 10
50.27406338293823
 20
-44.98811410459589
 30
0.0
 10
49.68791432330713
 20
-44.87330629302017
 30
0.0
 10
50.27406338293823
 20
-44.98811410459589
 30
0.0
  0
SPLINE
  5
1FC
330
1F
100
AcDbEntity
  8
0
  6
Continuous
 62
     7
100
AcDbSpline
210
0.0
220
0.0
230
1.0
 70
     8
 71
     3
 72
     9
 73
     5
 74
     0
 42
0.00000001
 43
0.00000001
 40
0.0
 40
0.0
 40
0.0
 40
0.0
 40
0.5568299227473663
 40
1.0
 40
1.0
 40
1.0
 40
1.0
 10
52.77007818222046
 20
-44.98811410459589
 30
0.0
 10
54.6597869566673
 20
-44.10341906251021
 30
0.0
 10
55.21859587105233
 20
-42.53961965134708
 30
0.0
 10
55.10213833137076
 20
-43.12438411234829
 30
0.0
 10
55.21859587105233
 20
-42.53961965134708
 30
0.0
  0
SPLINE
  5
1FD
330
1F
100
AcDbEntity
  8
0
  6
Continuous
 62
     7
100
AcDbSpline
210
0.0
220
0.0
230
1.0
 70
     8
 71
     3
 72
     9
 73
     5
 74
     0
 42
0.00000001
 43
0.00000001
 40
0.0
 40
0.0
 40
0.0
 40
0.0
 40
0.5592565542584086
 40
1.0
 40
1.0
 40
1.0
 40
1.0
 10
133.7605714797974
 20
-39.32947609201666
 30
0.0
 10
133.4930160373702
 20
-38.19715178545418
 30
0.0
 10
132.9226370754897
 20
-37.47919968304281
 30
0.0
 10
133.1391728680127
 20
-37.70570469509608
 30
0.0
 10
132.9226370754897
 20
-37.47919968304281
 30
0.0
  0
SPLINE
  5
1FE
330
1F
100
AcDbEntity
  8
0
  6
Continuous
 62
     7
100
AcDbSpline
210
0.0
220
0.0
230
1.0
 70
     8
 71
     3
 72
     9
 73
     5
 74
     0
 42
0.00000001
 43
0.00000001
 40
0.0
 40
0.0
 40
0.0
 40
0.0
 40
0.5569704318307159
 40
1.0
 40
1.0
 40
1.0
 40
1.0
 10
130.6980848312378
 20
-38.71236423305024
 30
0.0
 10
131.1729761437517
 20
-38.93579309475764
 30
0.0
 10
131.3091267743804
 20
-39.33042789223457
 30
0.0
 10
131.2815818867884
 20
-39.18286645521449
 30
0.0
 10
131.3091267743804
 20
-39.33042789223457
 30
0.0
  0
SPLINE
  5
1FF
330
1F
100
AcDbEntity
  8
0
  6
Continuous
 62
     7
100
AcDbSpline
210
0.0
220
0.0
230
1.0
 70
     8
 71
     3
 72
     9
 73
     5
 74
     0
 42
0.00000001
 43
0.00000001
 40
0.0
 40
0.0
 40
0.0
 40
0.0
 40
0.5569262855201994
 40
1.0
 40
1.0
 40
1.0
 40
1.0
 10
133.7605714797974
 20
-32.43661436150458
 30
0.0
 10
132.8725615692474
 20
-30.54862859167625
 30
0.0
 10
131.3091267743804
 20
-29.99108557844693
 30
0.0
 10
131.8935545185029
 20
-30.10718743706367
 30
0.0
 10
131.3091267743804
 20
-29.99108557844693
 30
0.0
  0
SPLINE
  5
200
330
1F
100
AcDbEntity
  8
0
  6
Continuous
 62
     7
100
AcDbSpline
210
0.0
220
0.0
230
1.0
 70
     8
 71
     3
 72
     9
 73
     5
 74
     0
 42
0.00000001
 43
0.00000001
 40
0.0
 40
0.0
 40
0.0
 40
0.0
 40
0.5587422454231089
 40
1.0
 40
1.0
 40
1.0
 40
1.0
 10
132.9244375228882
 20
-37.47815792609699
 30
0.0
 10
133.597983046294
 20
-36.53657482354544
 30
0.0
 10
133.7605927014802
 20
-35.63688589540414
 30
0.0
 10
133.733549791616
 20
-35.94826143171596
 30
0.0
 10
133.7605927014802
 20
-35.63688589540414
 30
0.0
  0
SPLINE
  5
201
330
1F
100
AcDbEntity
  8
0
  6
Continuous
 62
     7
100
AcDbSpline
210
0.0
220
0.0
230
1.0
 70
     8
 71
     3
 72
     9
 73
     5
 74
     0
 42
0.00000001
 43
0.00000001
 40
0.0
 40
0.0
 40
0.0
 40
0.0
 40
0.5567726397853039
 40
1.0
 40
1.0
 40
1.0
 40
1.0
 10
62.08863854408264
 20
-44.98811410459589
 30
0.0
 10
63.97997247062028
 20
-44.10506838006616
 30
0.0
 10
64.53713786788278
 20
-42.53961965134708
 30
0.0
 10
64.42147996140581
 20
-43.12514884465987
 30
0.0
 10
64.53713786788278
 20
-42.53961965134708
 30
0.0
  0
SPLINE
  5
202
330
1F
100
AcDbEntity
  8
0
  6
Continuous
 62
     7
100
AcDbSpline
210
0.0
220
0.0
230
1.0
 70
     8
 71
     3
 72
     9
 73
     5
 74
     0
 42
0.00000001
 43
0.00000001
 40
0.0
 40
0.0
 40
0.0
 40
0.0
 40
0.5568155974633013
 40
1.0
 40
1.0
 40
1.0
 40
1.0
 10
57.14410543441772
 20
-42.53961965134709
 30
0.0
 10
58.02582969421346
 20
-44.4328309198218
 30
0.0
 10
59.59260537976868
 20
-44.98811410459589
 30
0.0
 10
59.00645530082611
 20
-44.87330685153383
 30
0.0
 10
59.59260537976868
 20
-44.98811410459589
 30
0.0
  0
SPLINE
  5
203
330
1F
100
AcDbEntity
  8
0
  6
Continuous
 62
     7
100
AcDbSpline
210
0.0
220
0.0
230
1.0
 70
     8
 71
     3
 72
     9
 73
     5
 74
     0
 42
0.00000001
 43
0.00000001
 40
0.0
 40
0.0
 40
0.0
 40
0.0
 40
0.5569429554567656
 40
0.9999999999999999
 40
0.9999999999999999
 40
0.9999999999999999
 40
0.9999999999999999
 10
59.592604637146
 20
-29.98811700642583
 30
0.0
 10
57.69944723379481
 20
-30.87274002704768
 30
0.0
 10
57.14411092651986
 20
-32.43958003169574
 30
0.0
 10
57.25902058561353
 20
-31.85356566744134
 30
0.0
 10
57.14411092651986
 20
-32.43958003169574
 30
0.0
  0
SPLINE
  5
204
330
1F
100
AcDbEntity
  8
0
  6
Continuous
 62
     7
100
AcDbSpline
210
0.0
220
0.0
230
1.0
 70
     8
 71
     3
 72
     9
 73
     5
 74
     0
 42
0.00000001
 43
0.00000001
 40
0.0
 40
0.0
 40
0.0
 40
0.0
 40
0.5568856504936491
 40
1.0
 40
1.0
 40
1.0
 40
1.0
 10
64.53710794448853
 20
-32.43661436150458
 30
0.0
 10
63.65169380511833
 20
-30.54574588341196
 30
0.0
 10
62.08567194078294
 20
-29.99108557844693
 30
0.0
 10
62.67130285289286
 20
-30.10581957388419
 30
0.0
 10
62.08567194078294
 20
-29.99108557844693
 30
0.0
  0
SPLINE
  5
205
330
1F
100
AcDbEntity
  8
0
  6
Continuous
 62
     7
100
AcDbSpline
210
0.0
220
0.0
230
1.0
 70
     8
 71
     3
 72
     9
 73
     5
 74
     0
 42
0.00000001
 43
0.00000001
 40
0.0
 40
0.0
 40
0.0
 40
0.0
 40
0.5569428030635611
 40
1.0
 40
1.0
 40
1.0
 40
1.0
 10
121.2090849876404
 20
-29.98811700642583
 30
0.0
 10
119.3159290087552
 20
-30.87274002704767
 30
0.0
 10
118.7605927014802
 20
-32.43958003169575
 30
0.0
 10
118.8755023514234
 20
-31.85356567761244
 30
0.0
 10
118.7605927014802
 20
-32.43958003169575
 30
0.0
  0
SPLINE
  5
206
330
1F
100
AcDbEntity
  8
0
  6
Continuous
 62
     7
100
AcDbSpline
210
0.0
220
0.0
230
1.0
 70
     8
 71
     3
 72
     9
 73
     5
 74
     0
 42
0.00000001
 43
0.00000001
 40
0.0
 40
0.0
 40
0.0
 40
0.0
 40
0.5568156685235092
 40
0.9999999999999999
 40
0.9999999999999999
 40
0.9999999999999999
 40
0.9999999999999999
 10
118.7605857849121
 20
-42.53961965134709
 30
0.0
 10
119.6423114691738
 20
-44.43283091982182
 30
0.0
 10
121.2090871547291
 20
-44.98811410459589
 30
0.0
 10
120.6229371548488
 20
-44.87330680821342
 30
0.0
 10
121.2090871547291
 20
-44.9881141045959
 30
0.0
  0
SPLINE
  5
207
330
1F
100
AcDbEntity
  8
0
  6
Continuous
 62
     7
100
AcDbSpline
210
0.0
220
0.0
230
1.0
 70
     8
 71
     3
 72
     9
 73
     5
 74
     0
 42
0.00000001
 43
0.00000001
 40
0.0
 40
0.0
 40
0.0
 40
0.0
 40
0.5569264232244658
 40
1.0
 40
1.0
 40
1.0
 40
1.0
 10
55.21857738494873
 20
-32.43661436150458
 30
0.0
 10
54.33056473881955
 20
-30.54862859167624
 30
0.0
 10
52.7671299439525
 20
-29.99108557844693
 30
0.0
 10
53.35155753680734
 20
-30.10718752063798
 30
0.0
 10
52.7671299439525
 20
-29.99108557844693
 30
0.0
  0
SPLINE
  5
208
330
1F
100
AcDbEntity
  8
0
  6
Continuous
 62
     7
100
AcDbSpline
210
0.0
220
0.0
230
1.0
 70
     8
 71
     3
 72
     9
 73
     5
 74
     0
 42
0.00000001
 43
0.00000001
 40
0.0
 40
0.0
 40
0.0
 40
0.0
 40
0.5569409907098146
 40
1.0
 40
1.0
 40
1.0
 40
1.0
 10
50.27404427528381
 20
-29.98811700642583
 30
0.0
 10
48.38090523696436
 20
-30.87274002704768
 30
0.0
 10
47.82556892968942
 20
-32.43958003169574
 30
0.0
 10
47.94047847081188
 20
-31.85356579857627
 30
0.0
 10
47.82556892968943
 20
-32.43958003169575
 30
0.0
  0
SPLINE
  5
209
330
1F
100
AcDbEntity
  8
0
  6
Continuous
 62
     7
100
AcDbSpline
210
0.0
220
0.0
230
1.0
 70
     8
 71
     3
 72
     9
 73
     5
 74
     0
 42
0.00000001
 43
0.00000001
 40
0.0
 40
0.0
 40
0.0
 40
0.0
 40
0.5568165136177575
 40
1.0
 40
1.0
 40
1.0
 40
1.0
 10
47.82554507255554
 20
-42.53961965134709
 30
0.0
 10
48.70728769738304
 20
-44.4328309198218
 30
0.0
 10
50.27406338293823
 20
-44.98811410459589
 30
0.0
 10
49.68791432330713
 20
-44.87330629302017
 30
0.0
 10
50.27406338293823
 20
-44.98811410459589
 30
0.0
  0
SPLINE
  5
20A
330
1F
100
AcDbEntity
  8
0
  6
Continuous
 62
     7
100
AcDbSpline
210
0.0
220
0.0
230
1.0
 70
     8
 71
     3
 72
     9
 73
     5
 74
     0
 42
0.00000001
 43
0.00000001
 40
0.0
 40
0.0
 40
0.0
 40
0.0
 40
0.5568299227473663
 40
1.0
 40
1.0
 40
1.0
 40
1.0
 10
52.77007818222046
 20
-44.98811410459589
 30
0.0
 10
54.6597869566673
 20
-44.10341906251021
 30
0.0
 10
55.21859587105233
 20
-42.53961965134708
 30
0.0
 10
55.10213833137076
 20
-43.12438411234829
 30
0.0
 10
55.21859587105233
 20
-42.53961965134708
 30
0.0
  0
SPLINE
  5
20B
330
1F
100
AcDbEntity
  8
0
  6
Continuous
 62
     7
100
AcDbSpline
210
0.0
220
0.0
230
1.0
 70
     8
 71
     3
 72
     9
 73
     5
 74
     0
 42
0.00000001
 43
0.00000001
 40
0.0
 40
0.0
 40
0.0
 40
0.0
 40
0.5567769292636137
 40
1.0
 40
1.0
 40
1.0
 40
1.0
 10
99.17259216308594
 20
-44.98811410459589
 30
0.0
 10
101.0639661314761
 20
-44.10506838006615
 30
0.0
 10
101.6211315287385
 20
-42.53961965134709
 30
0.0
 10
101.5054733656103
 20
-43.12514913066587
 30
0.0
 10
101.6211315287385
 20
-42.53961965134709
 30
0.0
  0
SPLINE
  5
20C
330
1F
100
AcDbEntity
  8
0
  6
Continuous
 62
     7
100
AcDbSpline
210
0.0
220
0.0
230
1.0
 70
     8
 71
     3
 72
     9
 73
     5
 74
     0
 42
0.00000001
 43
0.00000001
 40
0.0
 40
0.0
 40
0.0
 40
0.0
 40
0.5568161082690692
 40
1.0
 40
1.0
 40
1.0
 40
1.0
 10
94.22808885574341
 20
-42.53961965134709
 30
0.0
 10
95.10982335506922
 20
-44.43283091982181
 30
0.0
 10
96.67659904062444
 20
-44.98811410459589
 30
0.0
 10
96.09044953000635
 20
-44.87330654013182
 30
0.0
 10
96.67659904062444
 20
-44.98811410459589
 30
0.0
  0
SPLINE
  5
20D
330
1F
100
AcDbEntity
  8
0
  6
Continuous
 62
     7
100
AcDbSpline
210
0.0
220
0.0
230
1.0
 70
     8
 71
     3
 72
     9
 73
     5
 74
     0
 42
0.00000001
 43
0.00000001
 40
0.0
 40
0.0
 40
0.0
 40
0.0
 40
0.5569418600024264
 40
1.0
 40
1.0
 40
1.0
 40
1.0
 10
96.67658805847168
 20
-29.98811700642583
 30
0.0
 10
94.78344089465054
 20
-30.87274002704768
 30
0.0
 10
94.22810458737563
 20
-32.43958003169575
 30
0.0
 10
94.34301418069325
 20
-31.85356574055546
 30
0.0
 10
94.22810458737563
 20
-32.43958003169575
 30
0.0
  0
SPLINE
  5
20E
330
1F
100
AcDbEntity
  8
0
  6
Continuous
 62
     7
100
AcDbSpline
210
0.0
220
0.0
230
1.0
 70
     8
 71
     3
 72
     9
 73
     5
 74
     0
 42
0.00000001
 43
0.00000001
 40
0.0
 40
0.0
 40
0.0
 40
0.0
 40
0.556885137294605
 40
1.0
 40
1.0
 40
1.0
 40
1.0
 10
101.6210913658142
 20
-32.43661436150458
 30
0.0
 10
100.7356874659741
 20
-30.54574588341196
 30
0.0
 10
99.16966560163868
 20
-29.99108557844693
 30
0.0
 10
99.75529708094746
 20
-30.10581926154608
 30
0.0
 10
99.16966560163868
 20
-29.99108557844693
 30
0.0
  0
SPLINE
  5
20F
330
1F
100
AcDbEntity
  8
0
  6
Continuous
 62
     7
100
AcDbSpline
210
0.0
220
0.0
230
1.0
 70
     8
 71
     3
 72
     9
 73
     5
 74
     0
 42
0.00000001
 43
0.00000001
 40
0.0
 40
0.0
 40
0.0
 40
0.0
 40
0.5592561886983983
 40
1.0
 40
1.0
 40
1.0
 40
1.0
 10
92.30256080627441
 20
-39.32947609201666
 30
0.0
 10
92.03501286779809
 20
-38.19715178545417
 30
0.0
 10
91.46463390591764
 20
-37.47919968304281
 30
0.0
 10
91.6811701317844
 20
-37.70570458725221
 30
0.0
 10
91.46463390591764
 20
-37.47919968304281
 30
0.0
  0
SPLINE
  5
210
330
1F
100
AcDbEntity
  8
0
  6
Continuous
 62
     7
100
AcDbSpline
210
0.0
220
0.0
230
1.0
 70
     8
 71
     3
 72
     9
 73
     5
 74
     0
 42
0.00000001
 43
0.00000001
 40
0.0
 40
0.0
 40
0.0
 40
0.0
 40
0.5587357899773209
 40
1.0
 40
1.0
 40
1.0
 40
1.0
 10
91.46648645401001
 20
-37.47815792609699
 30
0.0
 10
92.13997987672192
 20
-36.53657482354544
 30
0.0
 10
92.30258953190813
 20
-35.63688589540414
 30
0.0
 10
92.27554501757974
 20
-35.94826016774753
 30
0.0
 10
92.30258953190813
 20
-35.63688589540414
 30
0.0
  0
SPLINE
  5
211
330
1F
100
AcDbEntity
  8
0
  6
Continuous
 62
     7
100
AcDbSpline
210
0.0
220
0.0
230
1.0
 70
     8
 71
     3
 72
     9
 73
     5
 74
     0
 42
0.00000001
 43
0.00000001
 40
0.0
 40
0.0
 40
0.0
 40
0.0
 40
0.5569259077858151
 40
1.0
 40
1.0
 40
1.0
 40
1.0
 10
92.30256080627441
 20
-32.43661436150458
 30
0.0
 10
91.41455839967533
 20
-30.54862859167624
 30
0.0
 10
89.85112360480827
 20
-29.99108557844693
 30
0.0
 10
90.43555176387378
 20
-30.10718720781195
 30
0.0
 10
89.85112360480827
 20
-29.99108557844693
 30
0.0
  0
SPLINE
  5
212
330
1F
100
AcDbEntity
  8
0
  6
Continuous
 62
     7
100
AcDbSpline
210
0.0
220
0.0
230
1.0
 70
     8
 71
     3
 72
     9
 73
     5
 74
     0
 42
0.00000001
 43
0.00000001
 40
0.0
 40
0.0
 40
0.0
 40
0.0
 40
0.5569482657202821
 40
1.0
 40
1.0
 40
1.0
 40
1.0
 10
89.24013376235962
 20
-38.71236423305024
 30
0.0
 10
89.71497297417963
 20
-38.93579309475766
 30
0.0
 10
89.85112360480828
 20
-39.33042789223457
 30
0.0
 10
89.8235790550438
 20
-39.18286683278198
 30
0.0
 10
89.85112360480828
 20
-39.33042789223457
 30
0.0
  0
SPLINE
  5
213
330
1F
100
AcDbEntity
  8
0
  6
Continuous
 62
     7
100
AcDbSpline
210
0.0
220
0.0
230
1.0
 70
     8
 71
     3
 72
     9
 73
     5
 74
     0
 42
0.00000001
 43
0.00000001
 40
0.0
 40
0.0
 40
0.0
 40
0.0
 40
0.5568850772638037
 40
1.0
 40
1.0
 40
1.0
 40
1.0
 10
73.85563850402832
 20
-32.43661436150458
 30
0.0
 10
72.97023580194875
 20
-30.54574588341196
 30
0.0
 10
71.40421393761335
 20
-29.99108557844693
 30
0.0
 10
71.98984548326997
 20
-30.10581922501067
 30
0.0
 10
71.40421393761335
 20
-29.99108557844693
 30
0.0
  0
SPLINE
  5
214
330
1F
100
AcDbEntity
  8
0
  6
Continuous
 62
     7
100
AcDbSpline
210
0.0
220
0.0
230
1.0
 70
     8
 71
     3
 72
     9
 73
     5
 74
     0
 42
0.00000001
 43
0.00000001
 40
0.0
 40
0.0
 40
0.0
 40
0.0
 40
0.5596459194088811
 40
1.0
 40
1.0
 40
1.0
 40
1.0
 10
70.15907764434814
 20
-29.98811700642583
 30
0.0
 10
69.438778142294
 20
-30.09005786257557
 30
0.0
 10
68.91114737659909
 20
-30.31200475435818
 30
0.0
 10
69.084152262513
 20
-30.22762016844429
 30
0.0
 10
68.91114737659909
 20
-30.31200475435818
 30
0.0
  0
ENDSEC
  0
SECTION
  2
OBJECTS
  0
DICTIONARY
  5
C
330
0
100
AcDbDictionary
281
     1
  3
ACAD_GROUP
350
D
  3
ACAD_LAYOUT
350
1A
  3
ACAD_MLINESTYLE
350
17
  3
ACAD_PLOTSETTINGS
350
19
  3
ACAD_PLOTSTYLENAME
350
E
  3
ACAD_SCALELIST
350
47
  3
DWGPROPS
350
215
  0
DICTIONARY
  5
D
102
{ACAD_REACTORS
330
C
102
}
330
C
100
AcDbDictionary
281
     1
  0
DICTIONARY
  5
1A
102
{ACAD_REACTORS
330
C
102
}
330
C
100
AcDbDictionary
281
     1
  3
Layout1
350
1E
  3
Layout2
350
26
  3
Model
350
22
  0
DICTIONARY
  5
17
102
{ACAD_REACTORS
330
C
102
}
330
C
100
AcDbDictionary
281
     1
  3
Standard
350
18
  0
DICTIONARY
  5
19
102
{ACAD_REACTORS
330
C
102
}
330
C
100
AcDbDictionary
281
     1
  0
ACDBDICTIONARYWDFLT
  5
E
102
{ACAD_REACTORS
330
C
102
}
330
C
100
AcDbDictionary
281
     1
  3
Normal
350
F
100
AcDbDictionaryWithDefault
340
F
  0
DICTIONARY
  5
47
102
{ACAD_REACTORS
330
C
102
}
330
C
100
AcDbDictionary
281
     1
  3
A0
350
48
  3
A1
350
49
  3
A2
350
4A
  3
A3
350
4B
  3
A4
350
4C
  3
A5
350
4D
  3
A6
350
4E
  3
A7
350
4F
  3
A8
350
50
  3
A9
350
51
  3
B0
350
52
  3
B1
350
53
  3
B2
350
54
  3
B3
350
55
  3
B4
350
56
  3
B5
350
57
  3
B6
350
58
  0
XRECORD
  5
215
102
{ACAD_REACTORS
330
C
102
}
330
C
100
AcDbXrecord
280
     1
  1
DWGPROPS COOKIE
  2

  3

  4

  6

  7

  8
Daniel
  9

300
=
301
=
302
=
303
=
304
=
305
=
306
=
307
=
308
=
309
=
 40
0.0
 41
2460822.82944382
 42
2460822.829814537
  1

 90
        0
  0
LAYOUT
  5
1E
102
{ACAD_REACTORS
330
1A
102
}
330
1A
100
AcDbPlotSettings
  1

  2
none_device
  4

  6

 40
0.0
 41
0.0
 42
0.0
 43
0.0
 44
0.0
 45
0.0
 46
0.0
 47
0.0
 48
0.0
 49
0.0
140
0.0
141
0.0
142
1.0
143
1.0
 70
   688
 72
     1
 73
     0
 74
     5
  7

 75
    16
147
1.0
148
0.0
149
0.0
100
AcDbLayout
  1
Layout1
 70
     1
 71
     1
 10
0.0
 20
0.0
 11
420.0
 21
297.0
 12
0.0
 22
0.0
 32
0.0
 14
1.0000000000E+20
 24
1.0000000000E+20
 34
1.0000000000E+20
 15
-1.0000000000E+20
 25
-1.0000000000E+20
 35
-1.0000000000E+20
146
0.0
 13
0.0
 23
0.0
 33
0.0
 16
1.0
 26
0.0
 36
0.0
 17
0.0
 27
1.0
 37
0.0
 76
     0
330
1B
  0
LAYOUT
  5
26
102
{ACAD_REACTORS
330
1A
102
}
330
1A
100
AcDbPlotSettings
  1

  2
none_device
  4

  6

 40
0.0
 41
0.0
 42
0.0
 43
0.0
 44
0.0
 45
0.0
 46
0.0
 47
0.0
 48
0.0
 49
0.0
140
0.0
141
0.0
142
1.0
143
1.0
 70
   688
 72
     1
 73
     0
 74
     5
  7

 75
    16
147
1.0
148
0.0
149
0.0
100
AcDbLayout
  1
Layout2
 70
     1
 71
     2
 10
0.0
 20
0.0
 11
0.0
 21
0.0
 12
0.0
 22
0.0
 32
0.0
 14
0.0
 24
0.0
 34
0.0
 15
0.0
 25
0.0
 35
0.0
146
0.0
 13
0.0
 23
0.0
 33
0.0
 16
1.0
 26
0.0
 36
0.0
 17
0.0
 27
1.0
 37
0.0
 76
     0
330
23
  0
LAYOUT
  5
22
102
{ACAD_REACTORS
330
1A
102
}
330
1A
100
AcDbPlotSettings
  1

  2
none_device
  4
ANSI_A_(11.00_x_8.50_Inches)
  6

 40
6.35
 41
19.05
 42
6.35000508
 43
19.05000254
 44
279.4
 45
215.9
 46
14.0349828747
 47
107.8879841447
 48
0.0
 49
0.0
140
0.0
141
0.0
142
0.0747558481
143
1.0
 70
  1696
 72
     0
 73
     0
 74
     0
  7

 75
     0
147
0.0179189148
148
-1300.4909072572
149
0.0
100
AcDbLayout
  1
Model
 70
     1
 71
     0
 10
0.0
 20
0.0
 11
420.0
 21
297.0
 12
0.0
 22
0.0
 32
0.0
 14
-10.0
 24
-45.0
 34
0.0
 15
135.6742218615
 25
25.0
 35
0.0
146
0.0
 13
0.0
 23
0.0
 33
0.0
 16
1.0
 26
0.0
 36
0.0
 17
0.0
 27
1.0
 37
0.0
 76
     0
330
1F
331
29
  0
MLINESTYLE
  5
18
102
{ACAD_REACTORS
330
17
102
}
330
17
100
AcDbMlineStyle
  2
Standard
 70
     0
  3

 62
   256
 51
90.0
 52
90.0
 71
     2
 49
0.5
 62
   256
  6
BYLAYER
 49
-0.5
 62
   256
  6
BYLAYER
  0
ACDBPLACEHOLDER
  5
F
102
{ACAD_REACTORS
330
E
102
}
330
E
  0
SCALE
  5
48
102
{ACAD_REACTORS
330
47
102
}
330
47
100
AcDbScale
 70
     0
300
1:1
140
1.0
141
1.0
290
     1
  0
SCALE
  5
49
102
{ACAD_REACTORS
330
47
102
}
330
47
100
AcDbScale
 70
     0
300
1:2
140
1.0
141
2.0
290
     0
  0
SCALE
  5
4A
102
{ACAD_REACTORS
330
47
102
}
330
47
100
AcDbScale
 70
     0
300
1:4
140
1.0
141
4.0
290
     0
  0
SCALE
  5
4B
102
{ACAD_REACTORS
330
47
102
}
330
47
100
AcDbScale
 70
     0
300
1:5
140
1.0
141
5.0
290
     0
  0
SCALE
  5
4C
102
{ACAD_REACTORS
330
47
102
}
330
47
100
AcDbScale
 70
     0
300
1:8
140
1.0
141
8.0
290
     0
  0
SCALE
  5
4D
102
{ACAD_REACTORS
330
47
102
}
330
47
100
AcDbScale
 70
     0
300
1:10
140
1.0
141
10.0
290
     0
  0
SCALE
  5
4E
102
{ACAD_REACTORS
330
47
102
}
330
47
100
AcDbScale
 70
     0
300
1:16
140
1.0
141
16.0
290
     0
  0
SCALE
  5
4F
102
{ACAD_REACTORS
330
47
102
}
330
47
100
AcDbScale
 70
     0
300
1:20
140
1.0
141
20.0
290
     0
  0
SCALE
  5
50
102
{ACAD_REACTORS
330
47
102
}
330
47
100
AcDbScale
 70
     0
300
1:30
140
1.0
141
30.0
290
     0
  0
SCALE
  5
51
102
{ACAD_REACTORS
330
47
102
}
330
47
100
AcDbScale
 70
     0
300
1:40
140
1.0
141
40.0
290
     0
  0
SCALE
  5
52
102
{ACAD_REACTORS
330
47
102
}
330
47
100
AcDbScale
 70
     0
300
1:50
140
1.0
141
50.0
290
     0
  0
SCALE
  5
53
102
{ACAD_REACTORS
330
47
102
}
330
47
100
AcDbScale
 70
     0
300
1:100
140
1.0
141
100.0
290
     0
  0
SCALE
  5
54
102
{ACAD_REACTORS
330
47
102
}
330
47
100
AcDbScale
 70
     0
300
2:1
140
2.0
141
1.0
290
     0
  0
SCALE
  5
55
102
{ACAD_REACTORS
330
47
102
}
330
47
100
AcDbScale
 70
     0
300
4:1
140
4.0
141
1.0
290
     0
  0
SCALE
  5
56
102
{ACAD_REACTORS
330
47
102
}
330
47
100
AcDbScale
 70
     0
300
8:1
140
8.0
141
1.0
290
     0
  0
SCALE
  5
57
102
{ACAD_REACTORS
330
47
102
}
330
47
100
AcDbScale
 70
     0
300
10:1
140
10.0
141
1.0
290
     0
  0
SCALE
  5
58
102
{ACAD_REACTORS
330
47
102
}
330
47
100
AcDbScale
 70
     0
300
100:1
140
100.0
141
1.0
290
     0
  0
ENDSEC
  0
EOF
